<?xml version="1.0" encoding="utf-8" standalone="no"?>
<!DOCTYPE svg PUBLIC "-//W3C//DTD SVG 1.1//EN"
  "http://www.w3.org/Graphics/SVG/1.1/DTD/svg11.dtd">
<svg height="432pt" version="1.1" viewBox="0 0 864 432" width="864pt" xmlns="http://www.w3.org/2000/svg" xmlns:xlink="http://www.w3.org/1999/xlink">
 <metadata>
  <rdf:RDF xmlns:cc="http://creativecommons.org/ns#" xmlns:dc="http://purl.org/dc/elements/1.1/" xmlns:rdf="http://www.w3.org/1999/02/22-rdf-syntax-ns#">
   <cc:Work>
    <dc:type rdf:resource="http://purl.org/dc/dcmitype/StillImage"/>
    <dc:date>2021-11-17T23:34:24.423660</dc:date>
    <dc:format>image/svg+xml</dc:format>
    <dc:creator>
     <cc:Agent>
      <dc:title>Matplotlib v3.4.3, https://matplotlib.org/</dc:title>
     </cc:Agent>
    </dc:creator>
   </cc:Work>
  </rdf:RDF>
 </metadata>
 <defs>
  <style type="text/css">*{stroke-linecap:butt;stroke-linejoin:round;}</style>
 </defs>
 <g id="figure_1">
  <g id="patch_1">
   <path d="M 0 432 
L 864 432 
L 864 0 
L 0 0 
z
" style="fill:#ffffff;"/>
  </g>
  <g id="axes_1">
   <g id="patch_2">
    <path d="M 108 378 
L 777.6 378 
L 777.6 51.84 
L 108 51.84 
z
" style="fill:#ffffff;"/>
   </g>
   <g id="matplotlib.axis_1">
    <g id="xtick_1">
     <g id="line2d_1">
      <path clip-path="url(#p4b7864f26c)" d="M 134.920636 378 
L 134.920636 51.84 
" style="fill:none;stroke:#cccccc;stroke-linecap:round;stroke-width:0.8;"/>
     </g>
     <g id="text_1">
      <!-- 0 -->
      <g style="fill:#262626;" transform="translate(132.140167 392.157812)scale(0.1 -0.1)">
       <defs>
        <path d="M 266 2259 
Q 266 3072 433 3567 
Q 600 4063 929 4331 
Q 1259 4600 1759 4600 
Q 2128 4600 2406 4451 
Q 2684 4303 2865 4023 
Q 3047 3744 3150 3342 
Q 3253 2941 3253 2259 
Q 3253 1453 3087 958 
Q 2922 463 2592 192 
Q 2263 -78 1759 -78 
Q 1097 -78 719 397 
Q 266 969 266 2259 
z
M 844 2259 
Q 844 1131 1108 757 
Q 1372 384 1759 384 
Q 2147 384 2411 759 
Q 2675 1134 2675 2259 
Q 2675 3391 2411 3762 
Q 2147 4134 1753 4134 
Q 1366 4134 1134 3806 
Q 844 3388 844 2259 
z
" id="ArialMT-30" transform="scale(0.015625)"/>
       </defs>
       <use xlink:href="#ArialMT-30"/>
      </g>
     </g>
    </g>
    <g id="xtick_2">
     <g id="line2d_2">
      <path clip-path="url(#p4b7864f26c)" d="M 281.287307 378 
L 281.287307 51.84 
" style="fill:none;stroke:#cccccc;stroke-linecap:round;stroke-width:0.8;"/>
     </g>
     <g id="text_2">
      <!-- 500 -->
      <g style="fill:#262626;" transform="translate(272.9459 392.157812)scale(0.1 -0.1)">
       <defs>
        <path d="M 266 1200 
L 856 1250 
Q 922 819 1161 601 
Q 1400 384 1738 384 
Q 2144 384 2425 690 
Q 2706 997 2706 1503 
Q 2706 1984 2436 2262 
Q 2166 2541 1728 2541 
Q 1456 2541 1237 2417 
Q 1019 2294 894 2097 
L 366 2166 
L 809 4519 
L 3088 4519 
L 3088 3981 
L 1259 3981 
L 1013 2750 
Q 1425 3038 1878 3038 
Q 2478 3038 2890 2622 
Q 3303 2206 3303 1553 
Q 3303 931 2941 478 
Q 2500 -78 1738 -78 
Q 1113 -78 717 272 
Q 322 622 266 1200 
z
" id="ArialMT-35" transform="scale(0.015625)"/>
       </defs>
       <use xlink:href="#ArialMT-35"/>
       <use x="55.615234" xlink:href="#ArialMT-30"/>
       <use x="111.230469" xlink:href="#ArialMT-30"/>
      </g>
     </g>
    </g>
    <g id="xtick_3">
     <g id="line2d_3">
      <path clip-path="url(#p4b7864f26c)" d="M 427.653977 378 
L 427.653977 51.84 
" style="fill:none;stroke:#cccccc;stroke-linecap:round;stroke-width:0.8;"/>
     </g>
     <g id="text_3">
      <!-- 1000 -->
      <g style="fill:#262626;" transform="translate(416.532102 392.157812)scale(0.1 -0.1)">
       <defs>
        <path d="M 2384 0 
L 1822 0 
L 1822 3584 
Q 1619 3391 1289 3197 
Q 959 3003 697 2906 
L 697 3450 
Q 1169 3672 1522 3987 
Q 1875 4303 2022 4600 
L 2384 4600 
L 2384 0 
z
" id="ArialMT-31" transform="scale(0.015625)"/>
       </defs>
       <use xlink:href="#ArialMT-31"/>
       <use x="55.615234" xlink:href="#ArialMT-30"/>
       <use x="111.230469" xlink:href="#ArialMT-30"/>
       <use x="166.845703" xlink:href="#ArialMT-30"/>
      </g>
     </g>
    </g>
    <g id="xtick_4">
     <g id="line2d_4">
      <path clip-path="url(#p4b7864f26c)" d="M 574.020647 378 
L 574.020647 51.84 
" style="fill:none;stroke:#cccccc;stroke-linecap:round;stroke-width:0.8;"/>
     </g>
     <g id="text_4">
      <!-- 1500 -->
      <g style="fill:#262626;" transform="translate(562.898772 392.157812)scale(0.1 -0.1)">
       <use xlink:href="#ArialMT-31"/>
       <use x="55.615234" xlink:href="#ArialMT-35"/>
       <use x="111.230469" xlink:href="#ArialMT-30"/>
       <use x="166.845703" xlink:href="#ArialMT-30"/>
      </g>
     </g>
    </g>
    <g id="xtick_5">
     <g id="line2d_5">
      <path clip-path="url(#p4b7864f26c)" d="M 720.387318 378 
L 720.387318 51.84 
" style="fill:none;stroke:#cccccc;stroke-linecap:round;stroke-width:0.8;"/>
     </g>
     <g id="text_5">
      <!-- 2000 -->
      <g style="fill:#262626;" transform="translate(709.265443 392.157812)scale(0.1 -0.1)">
       <defs>
        <path d="M 3222 541 
L 3222 0 
L 194 0 
Q 188 203 259 391 
Q 375 700 629 1000 
Q 884 1300 1366 1694 
Q 2113 2306 2375 2664 
Q 2638 3022 2638 3341 
Q 2638 3675 2398 3904 
Q 2159 4134 1775 4134 
Q 1369 4134 1125 3890 
Q 881 3647 878 3216 
L 300 3275 
Q 359 3922 746 4261 
Q 1134 4600 1788 4600 
Q 2447 4600 2831 4234 
Q 3216 3869 3216 3328 
Q 3216 3053 3103 2787 
Q 2991 2522 2730 2228 
Q 2469 1934 1863 1422 
Q 1356 997 1212 845 
Q 1069 694 975 541 
L 3222 541 
z
" id="ArialMT-32" transform="scale(0.015625)"/>
       </defs>
       <use xlink:href="#ArialMT-32"/>
       <use x="55.615234" xlink:href="#ArialMT-30"/>
       <use x="111.230469" xlink:href="#ArialMT-30"/>
       <use x="166.845703" xlink:href="#ArialMT-30"/>
      </g>
     </g>
    </g>
    <g id="text_6">
     <!-- list_price -->
     <g style="fill:#262626;" transform="translate(423.071875 405.303125)scale(0.1 -0.1)">
      <defs>
       <path d="M 409 0 
L 409 4581 
L 972 4581 
L 972 0 
L 409 0 
z
" id="ArialMT-6c" transform="scale(0.015625)"/>
       <path d="M 425 3934 
L 425 4581 
L 988 4581 
L 988 3934 
L 425 3934 
z
M 425 0 
L 425 3319 
L 988 3319 
L 988 0 
L 425 0 
z
" id="ArialMT-69" transform="scale(0.015625)"/>
       <path d="M 197 991 
L 753 1078 
Q 800 744 1014 566 
Q 1228 388 1613 388 
Q 2000 388 2187 545 
Q 2375 703 2375 916 
Q 2375 1106 2209 1216 
Q 2094 1291 1634 1406 
Q 1016 1563 777 1677 
Q 538 1791 414 1992 
Q 291 2194 291 2438 
Q 291 2659 392 2848 
Q 494 3038 669 3163 
Q 800 3259 1026 3326 
Q 1253 3394 1513 3394 
Q 1903 3394 2198 3281 
Q 2494 3169 2634 2976 
Q 2775 2784 2828 2463 
L 2278 2388 
Q 2241 2644 2061 2787 
Q 1881 2931 1553 2931 
Q 1166 2931 1000 2803 
Q 834 2675 834 2503 
Q 834 2394 903 2306 
Q 972 2216 1119 2156 
Q 1203 2125 1616 2013 
Q 2213 1853 2448 1751 
Q 2684 1650 2818 1456 
Q 2953 1263 2953 975 
Q 2953 694 2789 445 
Q 2625 197 2315 61 
Q 2006 -75 1616 -75 
Q 969 -75 630 194 
Q 291 463 197 991 
z
" id="ArialMT-73" transform="scale(0.015625)"/>
       <path d="M 1650 503 
L 1731 6 
Q 1494 -44 1306 -44 
Q 1000 -44 831 53 
Q 663 150 594 308 
Q 525 466 525 972 
L 525 2881 
L 113 2881 
L 113 3319 
L 525 3319 
L 525 4141 
L 1084 4478 
L 1084 3319 
L 1650 3319 
L 1650 2881 
L 1084 2881 
L 1084 941 
Q 1084 700 1114 631 
Q 1144 563 1211 522 
Q 1278 481 1403 481 
Q 1497 481 1650 503 
z
" id="ArialMT-74" transform="scale(0.015625)"/>
       <path d="M -97 -1272 
L -97 -866 
L 3631 -866 
L 3631 -1272 
L -97 -1272 
z
" id="ArialMT-5f" transform="scale(0.015625)"/>
       <path d="M 422 -1272 
L 422 3319 
L 934 3319 
L 934 2888 
Q 1116 3141 1344 3267 
Q 1572 3394 1897 3394 
Q 2322 3394 2647 3175 
Q 2972 2956 3137 2557 
Q 3303 2159 3303 1684 
Q 3303 1175 3120 767 
Q 2938 359 2589 142 
Q 2241 -75 1856 -75 
Q 1575 -75 1351 44 
Q 1128 163 984 344 
L 984 -1272 
L 422 -1272 
z
M 931 1641 
Q 931 1000 1190 694 
Q 1450 388 1819 388 
Q 2194 388 2461 705 
Q 2728 1022 2728 1688 
Q 2728 2322 2467 2637 
Q 2206 2953 1844 2953 
Q 1484 2953 1207 2617 
Q 931 2281 931 1641 
z
" id="ArialMT-70" transform="scale(0.015625)"/>
       <path d="M 416 0 
L 416 3319 
L 922 3319 
L 922 2816 
Q 1116 3169 1280 3281 
Q 1444 3394 1641 3394 
Q 1925 3394 2219 3213 
L 2025 2691 
Q 1819 2813 1613 2813 
Q 1428 2813 1281 2702 
Q 1134 2591 1072 2394 
Q 978 2094 978 1738 
L 978 0 
L 416 0 
z
" id="ArialMT-72" transform="scale(0.015625)"/>
       <path d="M 2588 1216 
L 3141 1144 
Q 3050 572 2676 248 
Q 2303 -75 1759 -75 
Q 1078 -75 664 370 
Q 250 816 250 1647 
Q 250 2184 428 2587 
Q 606 2991 970 3192 
Q 1334 3394 1763 3394 
Q 2303 3394 2647 3120 
Q 2991 2847 3088 2344 
L 2541 2259 
Q 2463 2594 2264 2762 
Q 2066 2931 1784 2931 
Q 1359 2931 1093 2626 
Q 828 2322 828 1663 
Q 828 994 1084 691 
Q 1341 388 1753 388 
Q 2084 388 2306 591 
Q 2528 794 2588 1216 
z
" id="ArialMT-63" transform="scale(0.015625)"/>
       <path d="M 2694 1069 
L 3275 997 
Q 3138 488 2766 206 
Q 2394 -75 1816 -75 
Q 1088 -75 661 373 
Q 234 822 234 1631 
Q 234 2469 665 2931 
Q 1097 3394 1784 3394 
Q 2450 3394 2872 2941 
Q 3294 2488 3294 1666 
Q 3294 1616 3291 1516 
L 816 1516 
Q 847 969 1125 678 
Q 1403 388 1819 388 
Q 2128 388 2347 550 
Q 2566 713 2694 1069 
z
M 847 1978 
L 2700 1978 
Q 2663 2397 2488 2606 
Q 2219 2931 1791 2931 
Q 1403 2931 1139 2672 
Q 875 2413 847 1978 
z
" id="ArialMT-65" transform="scale(0.015625)"/>
      </defs>
      <use xlink:href="#ArialMT-6c"/>
      <use x="22.216797" xlink:href="#ArialMT-69"/>
      <use x="44.433594" xlink:href="#ArialMT-73"/>
      <use x="94.433594" xlink:href="#ArialMT-74"/>
      <use x="122.216797" xlink:href="#ArialMT-5f"/>
      <use x="177.832031" xlink:href="#ArialMT-70"/>
      <use x="233.447266" xlink:href="#ArialMT-72"/>
      <use x="266.748047" xlink:href="#ArialMT-69"/>
      <use x="288.964844" xlink:href="#ArialMT-63"/>
      <use x="338.964844" xlink:href="#ArialMT-65"/>
     </g>
    </g>
   </g>
   <g id="matplotlib.axis_2">
    <g id="ytick_1">
     <g id="line2d_6">
      <path clip-path="url(#p4b7864f26c)" d="M 108 378 
L 777.6 378 
" style="fill:none;stroke:#cccccc;stroke-linecap:round;stroke-width:0.8;"/>
     </g>
     <g id="text_7">
      <!-- 0.0000 -->
      <g style="fill:#262626;" transform="translate(70.417187 381.578906)scale(0.1 -0.1)">
       <defs>
        <path d="M 581 0 
L 581 641 
L 1222 641 
L 1222 0 
L 581 0 
z
" id="ArialMT-2e" transform="scale(0.015625)"/>
       </defs>
       <use xlink:href="#ArialMT-30"/>
       <use x="55.615234" xlink:href="#ArialMT-2e"/>
       <use x="83.398438" xlink:href="#ArialMT-30"/>
       <use x="139.013672" xlink:href="#ArialMT-30"/>
       <use x="194.628906" xlink:href="#ArialMT-30"/>
       <use x="250.244141" xlink:href="#ArialMT-30"/>
      </g>
     </g>
    </g>
    <g id="ytick_2">
     <g id="line2d_7">
      <path clip-path="url(#p4b7864f26c)" d="M 108 315.364334 
L 777.6 315.364334 
" style="fill:none;stroke:#cccccc;stroke-linecap:round;stroke-width:0.8;"/>
     </g>
     <g id="text_8">
      <!-- 0.0005 -->
      <g style="fill:#262626;" transform="translate(70.417187 318.94324)scale(0.1 -0.1)">
       <use xlink:href="#ArialMT-30"/>
       <use x="55.615234" xlink:href="#ArialMT-2e"/>
       <use x="83.398438" xlink:href="#ArialMT-30"/>
       <use x="139.013672" xlink:href="#ArialMT-30"/>
       <use x="194.628906" xlink:href="#ArialMT-30"/>
       <use x="250.244141" xlink:href="#ArialMT-35"/>
      </g>
     </g>
    </g>
    <g id="ytick_3">
     <g id="line2d_8">
      <path clip-path="url(#p4b7864f26c)" d="M 108 252.728668 
L 777.6 252.728668 
" style="fill:none;stroke:#cccccc;stroke-linecap:round;stroke-width:0.8;"/>
     </g>
     <g id="text_9">
      <!-- 0.0010 -->
      <g style="fill:#262626;" transform="translate(70.417187 256.307574)scale(0.1 -0.1)">
       <use xlink:href="#ArialMT-30"/>
       <use x="55.615234" xlink:href="#ArialMT-2e"/>
       <use x="83.398438" xlink:href="#ArialMT-30"/>
       <use x="139.013672" xlink:href="#ArialMT-30"/>
       <use x="194.628906" xlink:href="#ArialMT-31"/>
       <use x="250.244141" xlink:href="#ArialMT-30"/>
      </g>
     </g>
    </g>
    <g id="ytick_4">
     <g id="line2d_9">
      <path clip-path="url(#p4b7864f26c)" d="M 108 190.093001 
L 777.6 190.093001 
" style="fill:none;stroke:#cccccc;stroke-linecap:round;stroke-width:0.8;"/>
     </g>
     <g id="text_10">
      <!-- 0.0015 -->
      <g style="fill:#262626;" transform="translate(70.417187 193.671908)scale(0.1 -0.1)">
       <use xlink:href="#ArialMT-30"/>
       <use x="55.615234" xlink:href="#ArialMT-2e"/>
       <use x="83.398438" xlink:href="#ArialMT-30"/>
       <use x="139.013672" xlink:href="#ArialMT-30"/>
       <use x="194.628906" xlink:href="#ArialMT-31"/>
       <use x="250.244141" xlink:href="#ArialMT-35"/>
      </g>
     </g>
    </g>
    <g id="ytick_5">
     <g id="line2d_10">
      <path clip-path="url(#p4b7864f26c)" d="M 108 127.457335 
L 777.6 127.457335 
" style="fill:none;stroke:#cccccc;stroke-linecap:round;stroke-width:0.8;"/>
     </g>
     <g id="text_11">
      <!-- 0.0020 -->
      <g style="fill:#262626;" transform="translate(70.417187 131.036241)scale(0.1 -0.1)">
       <use xlink:href="#ArialMT-30"/>
       <use x="55.615234" xlink:href="#ArialMT-2e"/>
       <use x="83.398438" xlink:href="#ArialMT-30"/>
       <use x="139.013672" xlink:href="#ArialMT-30"/>
       <use x="194.628906" xlink:href="#ArialMT-32"/>
       <use x="250.244141" xlink:href="#ArialMT-30"/>
      </g>
     </g>
    </g>
    <g id="ytick_6">
     <g id="line2d_11">
      <path clip-path="url(#p4b7864f26c)" d="M 108 64.821669 
L 777.6 64.821669 
" style="fill:none;stroke:#cccccc;stroke-linecap:round;stroke-width:0.8;"/>
     </g>
     <g id="text_12">
      <!-- 0.0025 -->
      <g style="fill:#262626;" transform="translate(70.417187 68.400575)scale(0.1 -0.1)">
       <use xlink:href="#ArialMT-30"/>
       <use x="55.615234" xlink:href="#ArialMT-2e"/>
       <use x="83.398438" xlink:href="#ArialMT-30"/>
       <use x="139.013672" xlink:href="#ArialMT-30"/>
       <use x="194.628906" xlink:href="#ArialMT-32"/>
       <use x="250.244141" xlink:href="#ArialMT-35"/>
      </g>
     </g>
    </g>
    <g id="text_13">
     <!-- Density -->
     <g style="fill:#262626;" transform="translate(64.3125 231.591875)rotate(-90)scale(0.1 -0.1)">
      <defs>
       <path d="M 494 0 
L 494 4581 
L 2072 4581 
Q 2606 4581 2888 4516 
Q 3281 4425 3559 4188 
Q 3922 3881 4101 3404 
Q 4281 2928 4281 2316 
Q 4281 1794 4159 1391 
Q 4038 988 3847 723 
Q 3656 459 3429 307 
Q 3203 156 2883 78 
Q 2563 0 2147 0 
L 494 0 
z
M 1100 541 
L 2078 541 
Q 2531 541 2789 625 
Q 3047 709 3200 863 
Q 3416 1078 3536 1442 
Q 3656 1806 3656 2325 
Q 3656 3044 3420 3430 
Q 3184 3816 2847 3947 
Q 2603 4041 2063 4041 
L 1100 4041 
L 1100 541 
z
" id="ArialMT-44" transform="scale(0.015625)"/>
       <path d="M 422 0 
L 422 3319 
L 928 3319 
L 928 2847 
Q 1294 3394 1984 3394 
Q 2284 3394 2536 3286 
Q 2788 3178 2913 3003 
Q 3038 2828 3088 2588 
Q 3119 2431 3119 2041 
L 3119 0 
L 2556 0 
L 2556 2019 
Q 2556 2363 2490 2533 
Q 2425 2703 2258 2804 
Q 2091 2906 1866 2906 
Q 1506 2906 1245 2678 
Q 984 2450 984 1813 
L 984 0 
L 422 0 
z
" id="ArialMT-6e" transform="scale(0.015625)"/>
       <path d="M 397 -1278 
L 334 -750 
Q 519 -800 656 -800 
Q 844 -800 956 -737 
Q 1069 -675 1141 -563 
Q 1194 -478 1313 -144 
Q 1328 -97 1363 -6 
L 103 3319 
L 709 3319 
L 1400 1397 
Q 1534 1031 1641 628 
Q 1738 1016 1872 1384 
L 2581 3319 
L 3144 3319 
L 1881 -56 
Q 1678 -603 1566 -809 
Q 1416 -1088 1222 -1217 
Q 1028 -1347 759 -1347 
Q 597 -1347 397 -1278 
z
" id="ArialMT-79" transform="scale(0.015625)"/>
      </defs>
      <use xlink:href="#ArialMT-44"/>
      <use x="72.216797" xlink:href="#ArialMT-65"/>
      <use x="127.832031" xlink:href="#ArialMT-6e"/>
      <use x="183.447266" xlink:href="#ArialMT-73"/>
      <use x="233.447266" xlink:href="#ArialMT-69"/>
      <use x="255.664062" xlink:href="#ArialMT-74"/>
      <use x="283.447266" xlink:href="#ArialMT-79"/>
     </g>
    </g>
   </g>
   <g id="line2d_12">
    <path clip-path="url(#p4b7864f26c)" d="M 138.436364 325.925767 
L 146.516289 325.222635 
L 157.289523 324.545308 
L 168.062758 324.135358 
L 178.835992 323.950778 
L 192.302535 323.961823 
L 211.155694 324.244481 
L 246.168706 324.815064 
L 265.021865 324.874793 
L 291.954951 324.687962 
L 313.501419 324.597258 
L 326.967962 324.738881 
L 337.741196 325.034917 
L 348.51443 325.535743 
L 359.287665 326.270399 
L 370.060899 327.255535 
L 380.834133 328.493497 
L 391.607367 329.971376 
L 402.380601 331.661068 
L 415.847144 334.005468 
L 442.780229 339.030415 
L 458.940081 341.895687 
L 469.713315 343.593782 
L 480.486549 345.045123 
L 488.566475 345.937432 
L 496.6464 346.639631 
L 504.726326 347.136677 
L 512.806252 347.418367 
L 520.886177 347.479662 
L 528.966103 347.320891 
L 537.046029 346.947798 
L 545.125954 346.371464 
L 553.20588 345.608089 
L 563.979114 344.336161 
L 574.752348 342.830754 
L 590.9122 340.295167 
L 617.845285 336.016939 
L 628.618519 334.533046 
L 639.391753 333.296458 
L 647.471679 332.571547 
L 655.551605 332.046577 
L 663.63153 331.740401 
L 671.711456 331.666957 
L 674.404765 331.69586 
L 674.404765 331.69586 
" style="fill:none;stroke:#1f77b4;stroke-linecap:round;stroke-width:1.5;"/>
   </g>
   <g id="line2d_13">
    <path clip-path="url(#p4b7864f26c)" d="M 201.62871 328.517429 
L 206.859016 326.253841 
L 212.089323 324.21695 
L 217.319629 322.428217 
L 222.549935 320.90352 
L 227.780241 319.652841 
L 233.010548 318.680157 
L 238.240854 317.983514 
L 243.47116 317.555265 
L 248.701467 317.382468 
L 253.931773 317.447405 
L 259.162079 317.728196 
L 264.392386 318.199498 
L 272.237845 319.201684 
L 280.083305 320.466543 
L 293.15907 322.867579 
L 306.234836 325.211909 
L 314.080296 326.399251 
L 321.925755 327.307785 
L 327.156061 327.713851 
L 332.386368 327.928981 
L 337.616674 327.926042 
L 342.84698 327.677399 
L 348.077287 327.154976 
L 353.307593 326.330598 
L 358.537899 325.176666 
L 363.768206 323.667189 
L 368.998512 321.779151 
L 374.228818 319.49418 
L 379.459125 316.800426 
L 384.689431 313.694523 
L 389.919737 310.183508 
L 395.150044 306.286523 
L 400.38035 302.036135 
L 405.610656 297.479135 
L 413.456116 290.206293 
L 434.377341 270.298256 
L 439.607647 265.75658 
L 444.837954 261.603593 
L 450.06826 257.940013 
L 452.683413 256.320562 
L 455.298566 254.85645 
L 457.913719 253.55684 
L 460.528873 252.42985 
L 463.144026 251.482479 
L 465.759179 250.720546 
L 468.374332 250.148638 
L 470.989485 249.770082 
L 473.604638 249.586924 
L 476.219792 249.599929 
L 478.834945 249.808593 
L 481.450098 250.211168 
L 484.065251 250.804708 
L 486.680404 251.585123 
L 489.295557 252.547241 
L 491.91071 253.684895 
L 494.525864 254.991001 
L 497.141017 256.457661 
L 499.75617 258.076259 
L 504.986476 261.731869 
L 510.216783 265.878669 
L 515.447089 270.432957 
L 520.677395 275.309798 
L 528.522855 283.049001 
L 541.59862 296.453771 
L 552.059233 307.073741 
L 559.904693 314.73029 
L 567.750152 321.996063 
L 572.980458 326.580599 
L 578.210765 330.933974 
L 583.441071 335.038958 
L 588.671377 338.880164 
L 593.901684 342.443485 
L 599.13199 345.715819 
L 604.362296 348.685069 
L 609.592603 351.340395 
L 614.822909 353.672675 
L 620.053215 355.675122 
L 625.283522 357.343983 
L 630.513828 358.679266 
L 635.744134 359.685425 
L 640.97444 360.371945 
L 646.204747 360.753767 
L 651.435053 360.851525 
L 656.665359 360.691551 
L 661.895666 360.305625 
L 667.125972 359.730472 
L 674.971432 358.603334 
L 701.122963 354.397852 
L 706.353269 353.802804 
L 711.583576 353.375008 
L 716.813882 353.139253 
L 722.044188 353.112798 
L 722.044188 353.112798 
" style="fill:none;stroke:#ff7f0e;stroke-linecap:round;stroke-width:1.5;"/>
   </g>
   <g id="line2d_14">
    <path clip-path="url(#p4b7864f26c)" d="M 621.42003 81.577155 
L 622.348068 81.765086 
L 623.276106 82.386815 
L 624.204145 83.438808 
L 625.132183 84.915539 
L 626.060221 86.809515 
L 626.988259 89.111318 
L 628.380317 93.303525 
L 629.772374 98.34195 
L 631.164431 104.172533 
L 633.020508 113.071075 
L 634.876584 123.102124 
L 637.19668 136.953386 
L 639.980795 154.986514 
L 650.653234 226.065205 
L 652.97333 239.467467 
L 654.829407 249.142867 
L 656.685483 257.737376 
L 658.541559 265.130559 
L 659.933617 269.824902 
L 661.325674 273.749359 
L 662.717732 276.873574 
L 663.64577 278.499502 
L 664.573808 279.753024 
L 665.501846 280.629548 
L 666.429885 281.125659 
L 667.357923 281.239117 
L 668.285961 280.968863 
L 669.213999 280.315019 
L 670.142038 279.278893 
L 671.070076 277.86298 
L 671.998114 276.07097 
L 672.926152 273.907753 
L 674.31821 269.980572 
L 675.710267 265.257835 
L 677.102324 259.771354 
L 678.958401 251.334512 
L 680.814477 241.71506 
L 683.134573 228.221505 
L 685.454668 213.365059 
L 688.702802 190.909315 
L 698.447204 122.069856 
L 700.767299 107.756728 
L 702.623376 97.473739 
L 704.479452 88.431542 
L 705.87151 82.565363 
L 707.263567 77.553274 
L 708.655625 73.448772 
L 709.583663 71.23898 
L 710.511701 69.463291 
L 711.439739 68.130511 
L 712.367777 67.247411 
L 713.295816 66.818688 
L 713.759835 66.775611 
L 713.759835 66.775611 
" style="fill:none;stroke:#2ca02c;stroke-linecap:round;stroke-width:1.5;"/>
   </g>
   <g id="line2d_15">
    <path clip-path="url(#p4b7864f26c)" d="M 194.234266 365.487839 
L 205.348424 364.967797 
L 219.241122 364.593982 
L 235.912359 364.146671 
L 247.026517 363.652066 
L 260.919215 362.778803 
L 280.368992 361.505635 
L 288.70461 361.16627 
L 297.040229 361.056339 
L 305.375848 361.209483 
L 313.711466 361.613093 
L 324.825625 362.423206 
L 338.718322 363.45524 
L 347.053941 363.79399 
L 352.61102 363.794819 
L 358.168099 363.559348 
L 363.725178 363.046394 
L 369.282257 362.223753 
L 374.839337 361.070237 
L 380.396416 359.577192 
L 385.953495 357.749397 
L 391.510574 355.605273 
L 397.067653 353.176373 
L 402.624732 350.506121 
L 410.960351 346.167027 
L 435.967207 332.748925 
L 441.524286 330.079697 
L 447.081365 327.629889 
L 452.638444 325.429261 
L 458.195523 323.495804 
L 463.752602 321.836063 
L 469.309681 320.446197 
L 474.86676 319.313598 
L 480.423839 318.418876 
L 485.980919 317.737962 
L 491.537998 317.244101 
L 499.873616 316.79334 
L 508.209235 316.608806 
L 519.323393 316.624689 
L 538.77317 316.771558 
L 547.108789 316.601798 
L 552.665868 316.310614 
L 558.222947 315.820948 
L 563.780026 315.081224 
L 569.337105 314.038907 
L 574.894184 312.643204 
L 580.451263 310.84829 
L 586.008342 308.616862 
L 591.565422 305.92374 
L 597.122501 302.759247 
L 602.67958 299.13204 
L 608.236659 295.071115 
L 613.793738 290.62672 
L 619.350817 285.870005 
L 627.686436 278.351487 
L 638.800594 268.200396 
L 644.357673 263.348771 
L 649.914752 258.813002 
L 655.471831 254.70981 
L 658.250371 252.853491 
L 661.02891 251.142976 
L 663.80745 249.58852 
L 666.585989 248.19911 
L 669.364529 246.98241 
L 672.143068 245.944728 
L 674.921608 245.091009 
L 677.700148 244.424851 
L 680.478687 243.948551 
L 683.257227 243.663159 
L 686.035766 243.568562 
L 688.814306 243.663577 
L 691.592845 243.946059 
L 694.371385 244.413016 
L 697.149924 245.060728 
L 699.928464 245.884869 
L 702.707004 246.880623 
L 705.485543 248.042797 
L 708.264083 249.365919 
L 711.042622 250.844331 
L 713.821162 252.47226 
L 716.599701 254.243879 
L 722.15678 258.19483 
L 727.71386 262.650603 
L 733.270939 267.564661 
L 738.828018 272.889657 
L 744.385097 278.576012 
L 747.163636 281.538197 
L 747.163636 281.538197 
" style="fill:none;stroke:#d62728;stroke-linecap:round;stroke-width:1.5;"/>
   </g>
   <g id="line2d_16">
    <path clip-path="url(#p4b7864f26c)" d="M 152.584166 337.127272 
L 161.112812 332.814835 
L 166.798576 330.16198 
L 172.48434 327.703338 
L 178.170104 325.43942 
L 183.855868 323.359159 
L 192.384515 320.534774 
L 200.913161 317.973917 
L 217.970453 313.19553 
L 252.085038 303.785295 
L 257.770802 302.45361 
L 263.456566 301.307347 
L 269.14233 300.395898 
L 274.828094 299.762895 
L 280.513858 299.442576 
L 286.199622 299.457062 
L 291.885386 299.814808 
L 297.57115 300.510361 
L 303.256914 301.525385 
L 308.942678 302.830769 
L 314.628443 304.389458 
L 320.314207 306.159614 
L 328.842853 309.116157 
L 340.214381 313.402426 
L 360.114555 321.039767 
L 368.643201 324.077 
L 374.328966 325.934323 
L 380.01473 327.609399 
L 385.700494 329.057084 
L 391.386258 330.230409 
L 397.072022 331.082981 
L 402.757786 331.572102 
L 408.44355 331.662301 
L 414.129314 331.328905 
L 419.815078 330.561267 
L 425.500842 329.365277 
L 431.186606 327.764855 
L 436.872371 325.802194 
L 442.558135 323.536637 
L 448.243899 321.042216 
L 459.615427 315.713319 
L 468.144073 311.780467 
L 473.829837 309.352847 
L 479.515601 307.16693 
L 485.201365 305.279559 
L 490.887129 303.729434 
L 496.572893 302.536065 
L 502.258658 301.700331 
L 507.944422 301.206534 
L 513.630186 301.025699 
L 519.31595 301.11974 
L 525.001714 301.446012 
L 530.687478 301.961758 
L 539.216124 303.007083 
L 547.74477 304.290865 
L 559.116298 306.27836 
L 570.487827 308.556685 
L 579.016473 310.474528 
L 587.545119 312.586043 
L 596.073765 314.887375 
L 607.445293 318.205314 
L 624.502585 323.499011 
L 684.203108 342.390775 
L 698.417519 347.254714 
L 715.474811 353.36693 
L 718.317693 354.399204 
L 718.317693 354.399204 
" style="fill:none;stroke:#9467bd;stroke-linecap:round;stroke-width:1.5;"/>
   </g>
   <g id="line2d_17">
    <path clip-path="url(#p4b7864f26c)" d="M 186.409504 347.503439 
L 193.620938 346.793035 
L 200.832372 346.313215 
L 208.043807 346.02674 
L 217.659052 345.864908 
L 236.889544 345.865285 
L 256.120036 345.770025 
L 280.15815 345.595163 
L 289.773396 345.779842 
L 296.98483 346.113825 
L 304.196265 346.654511 
L 311.407699 347.421506 
L 318.619134 348.415811 
L 325.830568 349.617577 
L 335.445814 351.468392 
L 357.080117 355.829429 
L 364.291551 357.006034 
L 369.099174 357.621125 
L 373.906797 358.063065 
L 378.71442 358.300436 
L 383.522043 358.303265 
L 388.329666 358.043594 
L 393.137289 357.496024 
L 397.944912 356.638231 
L 402.752534 355.451464 
L 407.560157 353.921018 
L 412.36778 352.036679 
L 417.175403 349.793147 
L 421.983026 347.190411 
L 426.790649 344.234084 
L 431.598272 340.935667 
L 436.405895 337.312735 
L 441.213518 333.38902 
L 446.021141 329.19437 
L 450.828764 324.764571 
L 458.040198 317.770901 
L 467.655444 308.049929 
L 479.674501 295.877554 
L 486.885935 288.909081 
L 491.693558 284.520971 
L 496.501181 280.399878 
L 501.308804 276.592537 
L 506.116427 273.139267 
L 510.92405 270.072782 
L 515.731673 267.417198 
L 520.539296 265.187301 
L 525.346919 263.388122 
L 530.154541 262.014848 
L 534.962164 261.053085 
L 539.769787 260.479494 
L 544.57741 260.262775 
L 549.385033 260.364962 
L 554.192656 260.743013 
L 559.000279 261.350598 
L 563.807902 262.140038 
L 571.019336 263.562938 
L 585.442205 266.763744 
L 597.461262 269.346189 
L 611.884131 272.185234 
L 623.903188 274.633779 
L 631.114623 276.354126 
L 635.922245 277.681001 
L 640.729868 279.192852 
L 645.537491 280.921155 
L 650.345114 282.892333 
L 655.152737 285.126404 
L 659.96036 287.635937 
L 664.767983 290.425381 
L 664.767983 290.425381 
" style="fill:none;stroke:#8c564b;stroke-linecap:round;stroke-width:1.5;"/>
   </g>
   <g id="line2d_18">
    <path clip-path="url(#p4b7864f26c)" d="M 155.751541 349.040238 
L 165.885528 346.732173 
L 193.753992 340.693565 
L 201.354482 338.728739 
L 208.954972 336.514418 
L 216.555462 334.037247 
L 224.155953 331.314221 
L 234.28994 327.378757 
L 264.6919 315.180657 
L 272.292391 312.523158 
L 277.359384 310.936643 
L 282.426378 309.524253 
L 287.493371 308.301479 
L 292.560365 307.275113 
L 297.627358 306.440746 
L 302.694352 305.78049 
L 310.294842 305.039647 
L 325.495822 303.701806 
L 330.562816 302.993031 
L 335.629809 301.990597 
L 340.696803 300.595997 
L 343.230299 299.72298 
L 345.763796 298.71923 
L 348.297293 297.576005 
L 350.83079 296.285987 
L 353.364286 294.843478 
L 355.897783 293.244588 
L 358.43128 291.487399 
L 360.964776 289.572101 
L 363.498273 287.501101 
L 368.565267 282.913133 
L 373.63226 277.789129 
L 378.699254 272.231361 
L 386.299744 263.386996 
L 393.900234 254.45149 
L 398.967228 248.766788 
L 404.034221 243.533849 
L 406.567718 241.147601 
L 409.101214 238.945371 
L 411.634711 236.948347 
L 414.168208 235.176012 
L 416.701705 233.645895 
L 419.235201 232.373355 
L 421.768698 231.371391 
L 424.302195 230.650499 
L 426.835692 230.218562 
L 429.369188 230.08078 
L 431.902685 230.239644 
L 434.436182 230.694946 
L 436.969679 231.443838 
L 439.503175 232.480915 
L 442.036672 233.798353 
L 444.570169 235.386057 
L 447.103666 237.23186 
L 449.637162 239.32173 
L 452.170659 241.64001 
L 454.704156 244.169662 
L 457.237652 246.892532 
L 462.304646 252.841318 
L 467.371639 259.328867 
L 472.438633 266.196468 
L 482.57262 280.473882 
L 492.706607 294.625869 
L 497.7736 301.408611 
L 502.840594 307.905383 
L 507.907587 314.071978 
L 512.974581 319.880054 
L 518.041574 325.313835 
L 523.108568 330.366612 
L 528.175561 335.037366 
L 533.242555 339.327807 
L 538.309548 343.240028 
L 543.376542 346.774893 
L 548.443535 349.931188 
L 553.510529 352.705525 
L 558.577522 355.092875 
L 563.644515 357.087632 
L 568.711509 358.685035 
L 573.778502 359.882799 
L 578.845496 360.682797 
L 583.912489 361.092645 
L 588.979483 361.12707 
L 594.046476 360.808948 
L 599.11347 360.169917 
L 604.180463 359.250518 
L 609.247457 358.099795 
L 616.847947 356.065537 
L 634.582424 351.027783 
L 639.649418 349.815881 
L 644.716411 348.817627 
L 649.783405 348.082144 
L 654.850398 347.647578 
L 659.917391 347.539498 
L 659.917391 347.539498 
" style="fill:none;stroke:#e377c2;stroke-linecap:round;stroke-width:1.5;"/>
   </g>
   <g id="line2d_19">
    <path clip-path="url(#p4b7864f26c)" d="M 307.709418 250.752981 
L 311.035222 249.172742 
L 314.361026 247.926377 
L 317.686829 247.020476 
L 321.012633 246.458363 
L 324.338437 246.240017 
L 327.664241 246.362043 
L 330.990044 246.817699 
L 334.315848 247.596968 
L 337.641652 248.68668 
L 340.967456 250.070689 
L 344.29326 251.730086 
L 347.619063 253.643465 
L 350.944867 255.787216 
L 354.270671 258.135857 
L 359.259377 261.983618 
L 364.248082 266.1359 
L 370.89969 271.976193 
L 385.865807 285.285579 
L 392.517415 290.811382 
L 397.50612 294.655495 
L 402.494826 298.187546 
L 407.483532 301.373458 
L 412.472237 304.193502 
L 417.460943 306.642075 
L 422.449649 308.72696 
L 427.438355 310.468125 
L 432.42706 311.896127 
L 437.415766 313.050178 
L 442.404472 313.975972 
L 449.056079 314.941765 
L 457.370589 315.888905 
L 472.336706 317.526867 
L 480.651215 318.698171 
L 487.302823 319.852826 
L 493.95443 321.210311 
L 502.26894 323.155408 
L 515.572155 326.578936 
L 525.549567 329.058038 
L 532.201174 330.494545 
L 537.18988 331.394626 
L 542.178586 332.106037 
L 547.167291 332.601838 
L 552.155997 332.862116 
L 557.144703 332.874997 
L 562.133408 332.637354 
L 567.122114 332.155162 
L 572.11082 331.443503 
L 577.099525 330.526222 
L 583.751133 329.039559 
L 592.065642 326.894176 
L 607.03176 322.913228 
L 613.683367 321.396033 
L 618.672073 320.464081 
L 623.660779 319.757769 
L 628.649484 319.314857 
L 633.63819 319.165913 
L 638.626896 319.333436 
L 638.626896 319.333436 
" style="fill:none;stroke:#7f7f7f;stroke-linecap:round;stroke-width:1.5;"/>
   </g>
   <g id="patch_3">
    <path d="M 108 378 
L 108 51.84 
" style="fill:none;stroke:#cccccc;stroke-linecap:square;stroke-linejoin:miter;stroke-width:0.8;"/>
   </g>
   <g id="patch_4">
    <path d="M 777.6 378 
L 777.6 51.84 
" style="fill:none;stroke:#cccccc;stroke-linecap:square;stroke-linejoin:miter;stroke-width:0.8;"/>
   </g>
   <g id="patch_5">
    <path d="M 108 378 
L 777.6 378 
" style="fill:none;stroke:#cccccc;stroke-linecap:square;stroke-linejoin:miter;stroke-width:0.8;"/>
   </g>
   <g id="patch_6">
    <path d="M 108 51.84 
L 777.6 51.84 
" style="fill:none;stroke:#cccccc;stroke-linecap:square;stroke-linejoin:miter;stroke-width:0.8;"/>
   </g>
   <g id="legend_1">
    <g id="patch_7">
     <path d="M 115 173.710312 
L 221.457812 173.710312 
Q 223.457812 173.710312 223.457812 171.710312 
L 223.457812 58.84 
Q 223.457812 56.84 221.457812 56.84 
L 115 56.84 
Q 113 56.84 113 58.84 
L 113 171.710312 
Q 113 173.710312 115 173.710312 
z
" style="fill:#ffffff;opacity:0.8;stroke:#cccccc;stroke-linejoin:miter;"/>
    </g>
    <g id="line2d_20">
     <path d="M 117 64.497813 
L 137 64.497813 
" style="fill:none;stroke:#1f77b4;stroke-linecap:round;stroke-width:1.5;"/>
    </g>
    <g id="line2d_21"/>
    <g id="text_14">
     <!-- High-Large -->
     <g style="fill:#262626;" transform="translate(145 67.997813)scale(0.1 -0.1)">
      <defs>
       <path d="M 513 0 
L 513 4581 
L 1119 4581 
L 1119 2700 
L 3500 2700 
L 3500 4581 
L 4106 4581 
L 4106 0 
L 3500 0 
L 3500 2159 
L 1119 2159 
L 1119 0 
L 513 0 
z
" id="ArialMT-48" transform="scale(0.015625)"/>
       <path d="M 319 -275 
L 866 -356 
Q 900 -609 1056 -725 
Q 1266 -881 1628 -881 
Q 2019 -881 2231 -725 
Q 2444 -569 2519 -288 
Q 2563 -116 2559 434 
Q 2191 0 1641 0 
Q 956 0 581 494 
Q 206 988 206 1678 
Q 206 2153 378 2554 
Q 550 2956 876 3175 
Q 1203 3394 1644 3394 
Q 2231 3394 2613 2919 
L 2613 3319 
L 3131 3319 
L 3131 450 
Q 3131 -325 2973 -648 
Q 2816 -972 2473 -1159 
Q 2131 -1347 1631 -1347 
Q 1038 -1347 672 -1080 
Q 306 -813 319 -275 
z
M 784 1719 
Q 784 1066 1043 766 
Q 1303 466 1694 466 
Q 2081 466 2343 764 
Q 2606 1063 2606 1700 
Q 2606 2309 2336 2618 
Q 2066 2928 1684 2928 
Q 1309 2928 1046 2623 
Q 784 2319 784 1719 
z
" id="ArialMT-67" transform="scale(0.015625)"/>
       <path d="M 422 0 
L 422 4581 
L 984 4581 
L 984 2938 
Q 1378 3394 1978 3394 
Q 2347 3394 2619 3248 
Q 2891 3103 3008 2847 
Q 3125 2591 3125 2103 
L 3125 0 
L 2563 0 
L 2563 2103 
Q 2563 2525 2380 2717 
Q 2197 2909 1863 2909 
Q 1613 2909 1392 2779 
Q 1172 2650 1078 2428 
Q 984 2206 984 1816 
L 984 0 
L 422 0 
z
" id="ArialMT-68" transform="scale(0.015625)"/>
       <path d="M 203 1375 
L 203 1941 
L 1931 1941 
L 1931 1375 
L 203 1375 
z
" id="ArialMT-2d" transform="scale(0.015625)"/>
       <path d="M 469 0 
L 469 4581 
L 1075 4581 
L 1075 541 
L 3331 541 
L 3331 0 
L 469 0 
z
" id="ArialMT-4c" transform="scale(0.015625)"/>
       <path d="M 2588 409 
Q 2275 144 1986 34 
Q 1697 -75 1366 -75 
Q 819 -75 525 192 
Q 231 459 231 875 
Q 231 1119 342 1320 
Q 453 1522 633 1644 
Q 813 1766 1038 1828 
Q 1203 1872 1538 1913 
Q 2219 1994 2541 2106 
Q 2544 2222 2544 2253 
Q 2544 2597 2384 2738 
Q 2169 2928 1744 2928 
Q 1347 2928 1158 2789 
Q 969 2650 878 2297 
L 328 2372 
Q 403 2725 575 2942 
Q 747 3159 1072 3276 
Q 1397 3394 1825 3394 
Q 2250 3394 2515 3294 
Q 2781 3194 2906 3042 
Q 3031 2891 3081 2659 
Q 3109 2516 3109 2141 
L 3109 1391 
Q 3109 606 3145 398 
Q 3181 191 3288 0 
L 2700 0 
Q 2613 175 2588 409 
z
M 2541 1666 
Q 2234 1541 1622 1453 
Q 1275 1403 1131 1340 
Q 988 1278 909 1158 
Q 831 1038 831 891 
Q 831 666 1001 516 
Q 1172 366 1500 366 
Q 1825 366 2078 508 
Q 2331 650 2450 897 
Q 2541 1088 2541 1459 
L 2541 1666 
z
" id="ArialMT-61" transform="scale(0.015625)"/>
      </defs>
      <use xlink:href="#ArialMT-48"/>
      <use x="72.216797" xlink:href="#ArialMT-69"/>
      <use x="94.433594" xlink:href="#ArialMT-67"/>
      <use x="150.048828" xlink:href="#ArialMT-68"/>
      <use x="205.664062" xlink:href="#ArialMT-2d"/>
      <use x="238.964844" xlink:href="#ArialMT-4c"/>
      <use x="294.580078" xlink:href="#ArialMT-61"/>
      <use x="350.195312" xlink:href="#ArialMT-72"/>
      <use x="383.496094" xlink:href="#ArialMT-67"/>
      <use x="439.111328" xlink:href="#ArialMT-65"/>
     </g>
    </g>
    <g id="line2d_22">
     <path d="M 117 78.760312 
L 137 78.760312 
" style="fill:none;stroke:#ff7f0e;stroke-linecap:round;stroke-width:1.5;"/>
    </g>
    <g id="line2d_23"/>
    <g id="text_15">
     <!-- High-Medium -->
     <g style="fill:#262626;" transform="translate(145 82.260312)scale(0.1 -0.1)">
      <defs>
       <path d="M 475 0 
L 475 4581 
L 1388 4581 
L 2472 1338 
Q 2622 884 2691 659 
Q 2769 909 2934 1394 
L 4031 4581 
L 4847 4581 
L 4847 0 
L 4263 0 
L 4263 3834 
L 2931 0 
L 2384 0 
L 1059 3900 
L 1059 0 
L 475 0 
z
" id="ArialMT-4d" transform="scale(0.015625)"/>
       <path d="M 2575 0 
L 2575 419 
Q 2259 -75 1647 -75 
Q 1250 -75 917 144 
Q 584 363 401 755 
Q 219 1147 219 1656 
Q 219 2153 384 2558 
Q 550 2963 881 3178 
Q 1213 3394 1622 3394 
Q 1922 3394 2156 3267 
Q 2391 3141 2538 2938 
L 2538 4581 
L 3097 4581 
L 3097 0 
L 2575 0 
z
M 797 1656 
Q 797 1019 1065 703 
Q 1334 388 1700 388 
Q 2069 388 2326 689 
Q 2584 991 2584 1609 
Q 2584 2291 2321 2609 
Q 2059 2928 1675 2928 
Q 1300 2928 1048 2622 
Q 797 2316 797 1656 
z
" id="ArialMT-64" transform="scale(0.015625)"/>
       <path d="M 2597 0 
L 2597 488 
Q 2209 -75 1544 -75 
Q 1250 -75 995 37 
Q 741 150 617 320 
Q 494 491 444 738 
Q 409 903 409 1263 
L 409 3319 
L 972 3319 
L 972 1478 
Q 972 1038 1006 884 
Q 1059 663 1231 536 
Q 1403 409 1656 409 
Q 1909 409 2131 539 
Q 2353 669 2445 892 
Q 2538 1116 2538 1541 
L 2538 3319 
L 3100 3319 
L 3100 0 
L 2597 0 
z
" id="ArialMT-75" transform="scale(0.015625)"/>
       <path d="M 422 0 
L 422 3319 
L 925 3319 
L 925 2853 
Q 1081 3097 1340 3245 
Q 1600 3394 1931 3394 
Q 2300 3394 2536 3241 
Q 2772 3088 2869 2813 
Q 3263 3394 3894 3394 
Q 4388 3394 4653 3120 
Q 4919 2847 4919 2278 
L 4919 0 
L 4359 0 
L 4359 2091 
Q 4359 2428 4304 2576 
Q 4250 2725 4106 2815 
Q 3963 2906 3769 2906 
Q 3419 2906 3187 2673 
Q 2956 2441 2956 1928 
L 2956 0 
L 2394 0 
L 2394 2156 
Q 2394 2531 2256 2718 
Q 2119 2906 1806 2906 
Q 1569 2906 1367 2781 
Q 1166 2656 1075 2415 
Q 984 2175 984 1722 
L 984 0 
L 422 0 
z
" id="ArialMT-6d" transform="scale(0.015625)"/>
      </defs>
      <use xlink:href="#ArialMT-48"/>
      <use x="72.216797" xlink:href="#ArialMT-69"/>
      <use x="94.433594" xlink:href="#ArialMT-67"/>
      <use x="150.048828" xlink:href="#ArialMT-68"/>
      <use x="205.664062" xlink:href="#ArialMT-2d"/>
      <use x="238.964844" xlink:href="#ArialMT-4d"/>
      <use x="322.265625" xlink:href="#ArialMT-65"/>
      <use x="377.880859" xlink:href="#ArialMT-64"/>
      <use x="433.496094" xlink:href="#ArialMT-69"/>
      <use x="455.712891" xlink:href="#ArialMT-75"/>
      <use x="511.328125" xlink:href="#ArialMT-6d"/>
     </g>
    </g>
    <g id="line2d_24">
     <path d="M 117 93.144688 
L 137 93.144688 
" style="fill:none;stroke:#2ca02c;stroke-linecap:round;stroke-width:1.5;"/>
    </g>
    <g id="line2d_25"/>
    <g id="text_16">
     <!-- High-Small -->
     <g style="fill:#262626;" transform="translate(145 96.644688)scale(0.1 -0.1)">
      <defs>
       <path d="M 288 1472 
L 859 1522 
Q 900 1178 1048 958 
Q 1197 738 1509 602 
Q 1822 466 2213 466 
Q 2559 466 2825 569 
Q 3091 672 3220 851 
Q 3350 1031 3350 1244 
Q 3350 1459 3225 1620 
Q 3100 1781 2813 1891 
Q 2628 1963 1997 2114 
Q 1366 2266 1113 2400 
Q 784 2572 623 2826 
Q 463 3081 463 3397 
Q 463 3744 659 4045 
Q 856 4347 1234 4503 
Q 1613 4659 2075 4659 
Q 2584 4659 2973 4495 
Q 3363 4331 3572 4012 
Q 3781 3694 3797 3291 
L 3216 3247 
Q 3169 3681 2898 3903 
Q 2628 4125 2100 4125 
Q 1550 4125 1298 3923 
Q 1047 3722 1047 3438 
Q 1047 3191 1225 3031 
Q 1400 2872 2139 2705 
Q 2878 2538 3153 2413 
Q 3553 2228 3743 1945 
Q 3934 1663 3934 1294 
Q 3934 928 3725 604 
Q 3516 281 3123 101 
Q 2731 -78 2241 -78 
Q 1619 -78 1198 103 
Q 778 284 539 648 
Q 300 1013 288 1472 
z
" id="ArialMT-53" transform="scale(0.015625)"/>
      </defs>
      <use xlink:href="#ArialMT-48"/>
      <use x="72.216797" xlink:href="#ArialMT-69"/>
      <use x="94.433594" xlink:href="#ArialMT-67"/>
      <use x="150.048828" xlink:href="#ArialMT-68"/>
      <use x="205.664062" xlink:href="#ArialMT-2d"/>
      <use x="238.964844" xlink:href="#ArialMT-53"/>
      <use x="305.664062" xlink:href="#ArialMT-6d"/>
      <use x="388.964844" xlink:href="#ArialMT-61"/>
      <use x="444.580078" xlink:href="#ArialMT-6c"/>
      <use x="466.796875" xlink:href="#ArialMT-6c"/>
     </g>
    </g>
    <g id="line2d_26">
     <path d="M 117 107.407188 
L 137 107.407188 
" style="fill:none;stroke:#d62728;stroke-linecap:round;stroke-width:1.5;"/>
    </g>
    <g id="line2d_27"/>
    <g id="text_17">
     <!-- Medium-Large -->
     <g style="fill:#262626;" transform="translate(145 110.907188)scale(0.1 -0.1)">
      <use xlink:href="#ArialMT-4d"/>
      <use x="83.300781" xlink:href="#ArialMT-65"/>
      <use x="138.916016" xlink:href="#ArialMT-64"/>
      <use x="194.53125" xlink:href="#ArialMT-69"/>
      <use x="216.748047" xlink:href="#ArialMT-75"/>
      <use x="272.363281" xlink:href="#ArialMT-6d"/>
      <use x="355.664062" xlink:href="#ArialMT-2d"/>
      <use x="388.964844" xlink:href="#ArialMT-4c"/>
      <use x="444.580078" xlink:href="#ArialMT-61"/>
      <use x="500.195312" xlink:href="#ArialMT-72"/>
      <use x="533.496094" xlink:href="#ArialMT-67"/>
      <use x="589.111328" xlink:href="#ArialMT-65"/>
     </g>
    </g>
    <g id="line2d_28">
     <path d="M 117 121.669688 
L 137 121.669688 
" style="fill:none;stroke:#9467bd;stroke-linecap:round;stroke-width:1.5;"/>
    </g>
    <g id="line2d_29"/>
    <g id="text_18">
     <!-- Medium-Medium -->
     <g style="fill:#262626;" transform="translate(145 125.169688)scale(0.1 -0.1)">
      <use xlink:href="#ArialMT-4d"/>
      <use x="83.300781" xlink:href="#ArialMT-65"/>
      <use x="138.916016" xlink:href="#ArialMT-64"/>
      <use x="194.53125" xlink:href="#ArialMT-69"/>
      <use x="216.748047" xlink:href="#ArialMT-75"/>
      <use x="272.363281" xlink:href="#ArialMT-6d"/>
      <use x="355.664062" xlink:href="#ArialMT-2d"/>
      <use x="388.964844" xlink:href="#ArialMT-4d"/>
      <use x="472.265625" xlink:href="#ArialMT-65"/>
      <use x="527.880859" xlink:href="#ArialMT-64"/>
      <use x="583.496094" xlink:href="#ArialMT-69"/>
      <use x="605.712891" xlink:href="#ArialMT-75"/>
      <use x="661.328125" xlink:href="#ArialMT-6d"/>
     </g>
    </g>
    <g id="line2d_30">
     <path d="M 117 135.815 
L 137 135.815 
" style="fill:none;stroke:#8c564b;stroke-linecap:round;stroke-width:1.5;"/>
    </g>
    <g id="line2d_31"/>
    <g id="text_19">
     <!-- Medium-Small -->
     <g style="fill:#262626;" transform="translate(145 139.315)scale(0.1 -0.1)">
      <use xlink:href="#ArialMT-4d"/>
      <use x="83.300781" xlink:href="#ArialMT-65"/>
      <use x="138.916016" xlink:href="#ArialMT-64"/>
      <use x="194.53125" xlink:href="#ArialMT-69"/>
      <use x="216.748047" xlink:href="#ArialMT-75"/>
      <use x="272.363281" xlink:href="#ArialMT-6d"/>
      <use x="355.664062" xlink:href="#ArialMT-2d"/>
      <use x="388.964844" xlink:href="#ArialMT-53"/>
      <use x="455.664062" xlink:href="#ArialMT-6d"/>
      <use x="538.964844" xlink:href="#ArialMT-61"/>
      <use x="594.580078" xlink:href="#ArialMT-6c"/>
      <use x="616.796875" xlink:href="#ArialMT-6c"/>
     </g>
    </g>
    <g id="line2d_32">
     <path d="M 117 149.960312 
L 137 149.960312 
" style="fill:none;stroke:#e377c2;stroke-linecap:round;stroke-width:1.5;"/>
    </g>
    <g id="line2d_33"/>
    <g id="text_20">
     <!-- Low-Large -->
     <g style="fill:#262626;" transform="translate(145 153.460312)scale(0.1 -0.1)">
      <defs>
       <path d="M 213 1659 
Q 213 2581 725 3025 
Q 1153 3394 1769 3394 
Q 2453 3394 2887 2945 
Q 3322 2497 3322 1706 
Q 3322 1066 3130 698 
Q 2938 331 2570 128 
Q 2203 -75 1769 -75 
Q 1072 -75 642 372 
Q 213 819 213 1659 
z
M 791 1659 
Q 791 1022 1069 705 
Q 1347 388 1769 388 
Q 2188 388 2466 706 
Q 2744 1025 2744 1678 
Q 2744 2294 2464 2611 
Q 2184 2928 1769 2928 
Q 1347 2928 1069 2612 
Q 791 2297 791 1659 
z
" id="ArialMT-6f" transform="scale(0.015625)"/>
       <path d="M 1034 0 
L 19 3319 
L 600 3319 
L 1128 1403 
L 1325 691 
Q 1338 744 1497 1375 
L 2025 3319 
L 2603 3319 
L 3100 1394 
L 3266 759 
L 3456 1400 
L 4025 3319 
L 4572 3319 
L 3534 0 
L 2950 0 
L 2422 1988 
L 2294 2553 
L 1622 0 
L 1034 0 
z
" id="ArialMT-77" transform="scale(0.015625)"/>
      </defs>
      <use xlink:href="#ArialMT-4c"/>
      <use x="55.615234" xlink:href="#ArialMT-6f"/>
      <use x="111.230469" xlink:href="#ArialMT-77"/>
      <use x="183.447266" xlink:href="#ArialMT-2d"/>
      <use x="216.748047" xlink:href="#ArialMT-4c"/>
      <use x="272.363281" xlink:href="#ArialMT-61"/>
      <use x="327.978516" xlink:href="#ArialMT-72"/>
      <use x="361.279297" xlink:href="#ArialMT-67"/>
      <use x="416.894531" xlink:href="#ArialMT-65"/>
     </g>
    </g>
    <g id="line2d_34">
     <path d="M 117 164.222813 
L 137 164.222813 
" style="fill:none;stroke:#7f7f7f;stroke-linecap:round;stroke-width:1.5;"/>
    </g>
    <g id="line2d_35"/>
    <g id="text_21">
     <!-- Low-Medium -->
     <g style="fill:#262626;" transform="translate(145 167.722813)scale(0.1 -0.1)">
      <use xlink:href="#ArialMT-4c"/>
      <use x="55.615234" xlink:href="#ArialMT-6f"/>
      <use x="111.230469" xlink:href="#ArialMT-77"/>
      <use x="183.447266" xlink:href="#ArialMT-2d"/>
      <use x="216.748047" xlink:href="#ArialMT-4d"/>
      <use x="300.048828" xlink:href="#ArialMT-65"/>
      <use x="355.664062" xlink:href="#ArialMT-64"/>
      <use x="411.279297" xlink:href="#ArialMT-69"/>
      <use x="433.496094" xlink:href="#ArialMT-75"/>
      <use x="489.111328" xlink:href="#ArialMT-6d"/>
     </g>
    </g>
   </g>
  </g>
 </g>
 <defs>
  <clipPath id="p4b7864f26c">
   <rect height="326.16" width="669.6" x="108" y="51.84"/>
  </clipPath>
 </defs>
</svg>
