<?xml version="1.0" encoding="utf-8" standalone="no"?>
<!DOCTYPE svg PUBLIC "-//W3C//DTD SVG 1.1//EN"
  "http://www.w3.org/Graphics/SVG/1.1/DTD/svg11.dtd">
<svg height="360pt" version="1.1" viewBox="0 0 1440 360" width="1440pt" xmlns="http://www.w3.org/2000/svg" xmlns:xlink="http://www.w3.org/1999/xlink">
 <metadata>
  <rdf:RDF xmlns:cc="http://creativecommons.org/ns#" xmlns:dc="http://purl.org/dc/elements/1.1/" xmlns:rdf="http://www.w3.org/1999/02/22-rdf-syntax-ns#">
   <cc:Work>
    <dc:type rdf:resource="http://purl.org/dc/dcmitype/StillImage"/>
    <dc:date>2021-11-24T11:47:44.375801</dc:date>
    <dc:format>image/svg+xml</dc:format>
    <dc:creator>
     <cc:Agent>
      <dc:title>Matplotlib v3.4.3, https://matplotlib.org/</dc:title>
     </cc:Agent>
    </dc:creator>
   </cc:Work>
  </rdf:RDF>
 </metadata>
 <defs>
  <style type="text/css">*{stroke-linecap:butt;stroke-linejoin:round;}</style>
 </defs>
 <g id="figure_1">
  <g id="patch_1">
   <path d="M 0 360 
L 1440 360 
L 1440 0 
L 0 0 
z
" style="fill:#ffffff;"/>
  </g>
  <g id="axes_1">
   <g id="patch_2">
    <path d="M 180 315 
L 508.235294 315 
L 508.235294 43.2 
L 180 43.2 
z
" style="fill:#ffffff;"/>
   </g>
   <g id="matplotlib.axis_1">
    <g id="xtick_1">
     <g id="line2d_1">
      <path clip-path="url(#p6ff3884480)" d="M 193.19639 315 
L 193.19639 43.2 
" style="fill:none;stroke:#cccccc;stroke-linecap:round;stroke-width:0.8;"/>
     </g>
     <g id="text_1">
      <!-- 0 -->
      <g style="fill:#262626;" transform="translate(190.415922 329.157812)scale(0.1 -0.1)">
       <defs>
        <path d="M 266 2259 
Q 266 3072 433 3567 
Q 600 4063 929 4331 
Q 1259 4600 1759 4600 
Q 2128 4600 2406 4451 
Q 2684 4303 2865 4023 
Q 3047 3744 3150 3342 
Q 3253 2941 3253 2259 
Q 3253 1453 3087 958 
Q 2922 463 2592 192 
Q 2263 -78 1759 -78 
Q 1097 -78 719 397 
Q 266 969 266 2259 
z
M 844 2259 
Q 844 1131 1108 757 
Q 1372 384 1759 384 
Q 2147 384 2411 759 
Q 2675 1134 2675 2259 
Q 2675 3391 2411 3762 
Q 2147 4134 1753 4134 
Q 1366 4134 1134 3806 
Q 844 3388 844 2259 
z
" id="ArialMT-30" transform="scale(0.015625)"/>
       </defs>
       <use xlink:href="#ArialMT-30"/>
      </g>
     </g>
    </g>
    <g id="xtick_2">
     <g id="line2d_2">
      <path clip-path="url(#p6ff3884480)" d="M 264.944758 315 
L 264.944758 43.2 
" style="fill:none;stroke:#cccccc;stroke-linecap:round;stroke-width:0.8;"/>
     </g>
     <g id="text_2">
      <!-- 500 -->
      <g style="fill:#262626;" transform="translate(256.603352 329.157812)scale(0.1 -0.1)">
       <defs>
        <path d="M 266 1200 
L 856 1250 
Q 922 819 1161 601 
Q 1400 384 1738 384 
Q 2144 384 2425 690 
Q 2706 997 2706 1503 
Q 2706 1984 2436 2262 
Q 2166 2541 1728 2541 
Q 1456 2541 1237 2417 
Q 1019 2294 894 2097 
L 366 2166 
L 809 4519 
L 3088 4519 
L 3088 3981 
L 1259 3981 
L 1013 2750 
Q 1425 3038 1878 3038 
Q 2478 3038 2890 2622 
Q 3303 2206 3303 1553 
Q 3303 931 2941 478 
Q 2500 -78 1738 -78 
Q 1113 -78 717 272 
Q 322 622 266 1200 
z
" id="ArialMT-35" transform="scale(0.015625)"/>
       </defs>
       <use xlink:href="#ArialMT-35"/>
       <use x="55.615234" xlink:href="#ArialMT-30"/>
       <use x="111.230469" xlink:href="#ArialMT-30"/>
      </g>
     </g>
    </g>
    <g id="xtick_3">
     <g id="line2d_3">
      <path clip-path="url(#p6ff3884480)" d="M 336.693126 315 
L 336.693126 43.2 
" style="fill:none;stroke:#cccccc;stroke-linecap:round;stroke-width:0.8;"/>
     </g>
     <g id="text_3">
      <!-- 1000 -->
      <g style="fill:#262626;" transform="translate(325.571251 329.157812)scale(0.1 -0.1)">
       <defs>
        <path d="M 2384 0 
L 1822 0 
L 1822 3584 
Q 1619 3391 1289 3197 
Q 959 3003 697 2906 
L 697 3450 
Q 1169 3672 1522 3987 
Q 1875 4303 2022 4600 
L 2384 4600 
L 2384 0 
z
" id="ArialMT-31" transform="scale(0.015625)"/>
       </defs>
       <use xlink:href="#ArialMT-31"/>
       <use x="55.615234" xlink:href="#ArialMT-30"/>
       <use x="111.230469" xlink:href="#ArialMT-30"/>
       <use x="166.845703" xlink:href="#ArialMT-30"/>
      </g>
     </g>
    </g>
    <g id="xtick_4">
     <g id="line2d_4">
      <path clip-path="url(#p6ff3884480)" d="M 408.441494 315 
L 408.441494 43.2 
" style="fill:none;stroke:#cccccc;stroke-linecap:round;stroke-width:0.8;"/>
     </g>
     <g id="text_4">
      <!-- 1500 -->
      <g style="fill:#262626;" transform="translate(397.319619 329.157812)scale(0.1 -0.1)">
       <use xlink:href="#ArialMT-31"/>
       <use x="55.615234" xlink:href="#ArialMT-35"/>
       <use x="111.230469" xlink:href="#ArialMT-30"/>
       <use x="166.845703" xlink:href="#ArialMT-30"/>
      </g>
     </g>
    </g>
    <g id="xtick_5">
     <g id="line2d_5">
      <path clip-path="url(#p6ff3884480)" d="M 480.189862 315 
L 480.189862 43.2 
" style="fill:none;stroke:#cccccc;stroke-linecap:round;stroke-width:0.8;"/>
     </g>
     <g id="text_5">
      <!-- 2000 -->
      <g style="fill:#262626;" transform="translate(469.067987 329.157812)scale(0.1 -0.1)">
       <defs>
        <path d="M 3222 541 
L 3222 0 
L 194 0 
Q 188 203 259 391 
Q 375 700 629 1000 
Q 884 1300 1366 1694 
Q 2113 2306 2375 2664 
Q 2638 3022 2638 3341 
Q 2638 3675 2398 3904 
Q 2159 4134 1775 4134 
Q 1369 4134 1125 3890 
Q 881 3647 878 3216 
L 300 3275 
Q 359 3922 746 4261 
Q 1134 4600 1788 4600 
Q 2447 4600 2831 4234 
Q 3216 3869 3216 3328 
Q 3216 3053 3103 2787 
Q 2991 2522 2730 2228 
Q 2469 1934 1863 1422 
Q 1356 997 1212 845 
Q 1069 694 975 541 
L 3222 541 
z
" id="ArialMT-32" transform="scale(0.015625)"/>
       </defs>
       <use xlink:href="#ArialMT-32"/>
       <use x="55.615234" xlink:href="#ArialMT-30"/>
       <use x="111.230469" xlink:href="#ArialMT-30"/>
       <use x="166.845703" xlink:href="#ArialMT-30"/>
      </g>
     </g>
    </g>
    <g id="text_6">
     <!-- list_price -->
     <g style="fill:#262626;" transform="translate(324.389522 342.303125)scale(0.1 -0.1)">
      <defs>
       <path d="M 409 0 
L 409 4581 
L 972 4581 
L 972 0 
L 409 0 
z
" id="ArialMT-6c" transform="scale(0.015625)"/>
       <path d="M 425 3934 
L 425 4581 
L 988 4581 
L 988 3934 
L 425 3934 
z
M 425 0 
L 425 3319 
L 988 3319 
L 988 0 
L 425 0 
z
" id="ArialMT-69" transform="scale(0.015625)"/>
       <path d="M 197 991 
L 753 1078 
Q 800 744 1014 566 
Q 1228 388 1613 388 
Q 2000 388 2187 545 
Q 2375 703 2375 916 
Q 2375 1106 2209 1216 
Q 2094 1291 1634 1406 
Q 1016 1563 777 1677 
Q 538 1791 414 1992 
Q 291 2194 291 2438 
Q 291 2659 392 2848 
Q 494 3038 669 3163 
Q 800 3259 1026 3326 
Q 1253 3394 1513 3394 
Q 1903 3394 2198 3281 
Q 2494 3169 2634 2976 
Q 2775 2784 2828 2463 
L 2278 2388 
Q 2241 2644 2061 2787 
Q 1881 2931 1553 2931 
Q 1166 2931 1000 2803 
Q 834 2675 834 2503 
Q 834 2394 903 2306 
Q 972 2216 1119 2156 
Q 1203 2125 1616 2013 
Q 2213 1853 2448 1751 
Q 2684 1650 2818 1456 
Q 2953 1263 2953 975 
Q 2953 694 2789 445 
Q 2625 197 2315 61 
Q 2006 -75 1616 -75 
Q 969 -75 630 194 
Q 291 463 197 991 
z
" id="ArialMT-73" transform="scale(0.015625)"/>
       <path d="M 1650 503 
L 1731 6 
Q 1494 -44 1306 -44 
Q 1000 -44 831 53 
Q 663 150 594 308 
Q 525 466 525 972 
L 525 2881 
L 113 2881 
L 113 3319 
L 525 3319 
L 525 4141 
L 1084 4478 
L 1084 3319 
L 1650 3319 
L 1650 2881 
L 1084 2881 
L 1084 941 
Q 1084 700 1114 631 
Q 1144 563 1211 522 
Q 1278 481 1403 481 
Q 1497 481 1650 503 
z
" id="ArialMT-74" transform="scale(0.015625)"/>
       <path d="M -97 -1272 
L -97 -866 
L 3631 -866 
L 3631 -1272 
L -97 -1272 
z
" id="ArialMT-5f" transform="scale(0.015625)"/>
       <path d="M 422 -1272 
L 422 3319 
L 934 3319 
L 934 2888 
Q 1116 3141 1344 3267 
Q 1572 3394 1897 3394 
Q 2322 3394 2647 3175 
Q 2972 2956 3137 2557 
Q 3303 2159 3303 1684 
Q 3303 1175 3120 767 
Q 2938 359 2589 142 
Q 2241 -75 1856 -75 
Q 1575 -75 1351 44 
Q 1128 163 984 344 
L 984 -1272 
L 422 -1272 
z
M 931 1641 
Q 931 1000 1190 694 
Q 1450 388 1819 388 
Q 2194 388 2461 705 
Q 2728 1022 2728 1688 
Q 2728 2322 2467 2637 
Q 2206 2953 1844 2953 
Q 1484 2953 1207 2617 
Q 931 2281 931 1641 
z
" id="ArialMT-70" transform="scale(0.015625)"/>
       <path d="M 416 0 
L 416 3319 
L 922 3319 
L 922 2816 
Q 1116 3169 1280 3281 
Q 1444 3394 1641 3394 
Q 1925 3394 2219 3213 
L 2025 2691 
Q 1819 2813 1613 2813 
Q 1428 2813 1281 2702 
Q 1134 2591 1072 2394 
Q 978 2094 978 1738 
L 978 0 
L 416 0 
z
" id="ArialMT-72" transform="scale(0.015625)"/>
       <path d="M 2588 1216 
L 3141 1144 
Q 3050 572 2676 248 
Q 2303 -75 1759 -75 
Q 1078 -75 664 370 
Q 250 816 250 1647 
Q 250 2184 428 2587 
Q 606 2991 970 3192 
Q 1334 3394 1763 3394 
Q 2303 3394 2647 3120 
Q 2991 2847 3088 2344 
L 2541 2259 
Q 2463 2594 2264 2762 
Q 2066 2931 1784 2931 
Q 1359 2931 1093 2626 
Q 828 2322 828 1663 
Q 828 994 1084 691 
Q 1341 388 1753 388 
Q 2084 388 2306 591 
Q 2528 794 2588 1216 
z
" id="ArialMT-63" transform="scale(0.015625)"/>
       <path d="M 2694 1069 
L 3275 997 
Q 3138 488 2766 206 
Q 2394 -75 1816 -75 
Q 1088 -75 661 373 
Q 234 822 234 1631 
Q 234 2469 665 2931 
Q 1097 3394 1784 3394 
Q 2450 3394 2872 2941 
Q 3294 2488 3294 1666 
Q 3294 1616 3291 1516 
L 816 1516 
Q 847 969 1125 678 
Q 1403 388 1819 388 
Q 2128 388 2347 550 
Q 2566 713 2694 1069 
z
M 847 1978 
L 2700 1978 
Q 2663 2397 2488 2606 
Q 2219 2931 1791 2931 
Q 1403 2931 1139 2672 
Q 875 2413 847 1978 
z
" id="ArialMT-65" transform="scale(0.015625)"/>
      </defs>
      <use xlink:href="#ArialMT-6c"/>
      <use x="22.216797" xlink:href="#ArialMT-69"/>
      <use x="44.433594" xlink:href="#ArialMT-73"/>
      <use x="94.433594" xlink:href="#ArialMT-74"/>
      <use x="122.216797" xlink:href="#ArialMT-5f"/>
      <use x="177.832031" xlink:href="#ArialMT-70"/>
      <use x="233.447266" xlink:href="#ArialMT-72"/>
      <use x="266.748047" xlink:href="#ArialMT-69"/>
      <use x="288.964844" xlink:href="#ArialMT-63"/>
      <use x="338.964844" xlink:href="#ArialMT-65"/>
     </g>
    </g>
   </g>
   <g id="matplotlib.axis_2">
    <g id="ytick_1">
     <g id="line2d_6">
      <path clip-path="url(#p6ff3884480)" d="M 180 258.777601 
L 508.235294 258.777601 
" style="fill:none;stroke:#cccccc;stroke-linecap:round;stroke-width:0.8;"/>
     </g>
     <g id="text_7">
      <!-- 0.0001 -->
      <g style="fill:#262626;" transform="translate(142.417188 262.356507)scale(0.1 -0.1)">
       <defs>
        <path d="M 581 0 
L 581 641 
L 1222 641 
L 1222 0 
L 581 0 
z
" id="ArialMT-2e" transform="scale(0.015625)"/>
       </defs>
       <use xlink:href="#ArialMT-30"/>
       <use x="55.615234" xlink:href="#ArialMT-2e"/>
       <use x="83.398438" xlink:href="#ArialMT-30"/>
       <use x="139.013672" xlink:href="#ArialMT-30"/>
       <use x="194.628906" xlink:href="#ArialMT-30"/>
       <use x="250.244141" xlink:href="#ArialMT-31"/>
      </g>
     </g>
    </g>
    <g id="ytick_2">
     <g id="line2d_7">
      <path clip-path="url(#p6ff3884480)" d="M 180 200.366033 
L 508.235294 200.366033 
" style="fill:none;stroke:#cccccc;stroke-linecap:round;stroke-width:0.8;"/>
     </g>
     <g id="text_8">
      <!-- 0.0002 -->
      <g style="fill:#262626;" transform="translate(142.417188 203.944939)scale(0.1 -0.1)">
       <use xlink:href="#ArialMT-30"/>
       <use x="55.615234" xlink:href="#ArialMT-2e"/>
       <use x="83.398438" xlink:href="#ArialMT-30"/>
       <use x="139.013672" xlink:href="#ArialMT-30"/>
       <use x="194.628906" xlink:href="#ArialMT-30"/>
       <use x="250.244141" xlink:href="#ArialMT-32"/>
      </g>
     </g>
    </g>
    <g id="ytick_3">
     <g id="line2d_8">
      <path clip-path="url(#p6ff3884480)" d="M 180 141.954465 
L 508.235294 141.954465 
" style="fill:none;stroke:#cccccc;stroke-linecap:round;stroke-width:0.8;"/>
     </g>
     <g id="text_9">
      <!-- 0.0003 -->
      <g style="fill:#262626;" transform="translate(142.417188 145.533371)scale(0.1 -0.1)">
       <defs>
        <path d="M 269 1209 
L 831 1284 
Q 928 806 1161 595 
Q 1394 384 1728 384 
Q 2125 384 2398 659 
Q 2672 934 2672 1341 
Q 2672 1728 2419 1979 
Q 2166 2231 1775 2231 
Q 1616 2231 1378 2169 
L 1441 2663 
Q 1497 2656 1531 2656 
Q 1891 2656 2178 2843 
Q 2466 3031 2466 3422 
Q 2466 3731 2256 3934 
Q 2047 4138 1716 4138 
Q 1388 4138 1169 3931 
Q 950 3725 888 3313 
L 325 3413 
Q 428 3978 793 4289 
Q 1159 4600 1703 4600 
Q 2078 4600 2393 4439 
Q 2709 4278 2876 4000 
Q 3044 3722 3044 3409 
Q 3044 3113 2884 2869 
Q 2725 2625 2413 2481 
Q 2819 2388 3044 2092 
Q 3269 1797 3269 1353 
Q 3269 753 2831 336 
Q 2394 -81 1725 -81 
Q 1122 -81 723 278 
Q 325 638 269 1209 
z
" id="ArialMT-33" transform="scale(0.015625)"/>
       </defs>
       <use xlink:href="#ArialMT-30"/>
       <use x="55.615234" xlink:href="#ArialMT-2e"/>
       <use x="83.398438" xlink:href="#ArialMT-30"/>
       <use x="139.013672" xlink:href="#ArialMT-30"/>
       <use x="194.628906" xlink:href="#ArialMT-30"/>
       <use x="250.244141" xlink:href="#ArialMT-33"/>
      </g>
     </g>
    </g>
    <g id="ytick_4">
     <g id="line2d_9">
      <path clip-path="url(#p6ff3884480)" d="M 180 83.542897 
L 508.235294 83.542897 
" style="fill:none;stroke:#cccccc;stroke-linecap:round;stroke-width:0.8;"/>
     </g>
     <g id="text_10">
      <!-- 0.0004 -->
      <g style="fill:#262626;" transform="translate(142.417188 87.121803)scale(0.1 -0.1)">
       <defs>
        <path d="M 2069 0 
L 2069 1097 
L 81 1097 
L 81 1613 
L 2172 4581 
L 2631 4581 
L 2631 1613 
L 3250 1613 
L 3250 1097 
L 2631 1097 
L 2631 0 
L 2069 0 
z
M 2069 1613 
L 2069 3678 
L 634 1613 
L 2069 1613 
z
" id="ArialMT-34" transform="scale(0.015625)"/>
       </defs>
       <use xlink:href="#ArialMT-30"/>
       <use x="55.615234" xlink:href="#ArialMT-2e"/>
       <use x="83.398438" xlink:href="#ArialMT-30"/>
       <use x="139.013672" xlink:href="#ArialMT-30"/>
       <use x="194.628906" xlink:href="#ArialMT-30"/>
       <use x="250.244141" xlink:href="#ArialMT-34"/>
      </g>
     </g>
    </g>
    <g id="text_11">
     <!-- Density -->
     <g style="fill:#262626;" transform="translate(136.3125 195.771875)rotate(-90)scale(0.1 -0.1)">
      <defs>
       <path d="M 494 0 
L 494 4581 
L 2072 4581 
Q 2606 4581 2888 4516 
Q 3281 4425 3559 4188 
Q 3922 3881 4101 3404 
Q 4281 2928 4281 2316 
Q 4281 1794 4159 1391 
Q 4038 988 3847 723 
Q 3656 459 3429 307 
Q 3203 156 2883 78 
Q 2563 0 2147 0 
L 494 0 
z
M 1100 541 
L 2078 541 
Q 2531 541 2789 625 
Q 3047 709 3200 863 
Q 3416 1078 3536 1442 
Q 3656 1806 3656 2325 
Q 3656 3044 3420 3430 
Q 3184 3816 2847 3947 
Q 2603 4041 2063 4041 
L 1100 4041 
L 1100 541 
z
" id="ArialMT-44" transform="scale(0.015625)"/>
       <path d="M 422 0 
L 422 3319 
L 928 3319 
L 928 2847 
Q 1294 3394 1984 3394 
Q 2284 3394 2536 3286 
Q 2788 3178 2913 3003 
Q 3038 2828 3088 2588 
Q 3119 2431 3119 2041 
L 3119 0 
L 2556 0 
L 2556 2019 
Q 2556 2363 2490 2533 
Q 2425 2703 2258 2804 
Q 2091 2906 1866 2906 
Q 1506 2906 1245 2678 
Q 984 2450 984 1813 
L 984 0 
L 422 0 
z
" id="ArialMT-6e" transform="scale(0.015625)"/>
       <path d="M 397 -1278 
L 334 -750 
Q 519 -800 656 -800 
Q 844 -800 956 -737 
Q 1069 -675 1141 -563 
Q 1194 -478 1313 -144 
Q 1328 -97 1363 -6 
L 103 3319 
L 709 3319 
L 1400 1397 
Q 1534 1031 1641 628 
Q 1738 1016 1872 1384 
L 2581 3319 
L 3144 3319 
L 1881 -56 
Q 1678 -603 1566 -809 
Q 1416 -1088 1222 -1217 
Q 1028 -1347 759 -1347 
Q 597 -1347 397 -1278 
z
" id="ArialMT-79" transform="scale(0.015625)"/>
      </defs>
      <use xlink:href="#ArialMT-44"/>
      <use x="72.216797" xlink:href="#ArialMT-65"/>
      <use x="127.832031" xlink:href="#ArialMT-6e"/>
      <use x="183.447266" xlink:href="#ArialMT-73"/>
      <use x="233.447266" xlink:href="#ArialMT-69"/>
      <use x="255.664062" xlink:href="#ArialMT-74"/>
      <use x="283.447266" xlink:href="#ArialMT-79"/>
     </g>
    </g>
   </g>
   <g id="line2d_10">
    <path clip-path="url(#p6ff3884480)" d="M 194.919786 296.86877 
L 202.107783 294.143211 
L 207.85818 292.190012 
L 213.608577 290.47798 
L 219.358975 289.02814 
L 225.109372 287.848262 
L 230.859769 286.932652 
L 236.610167 286.260723 
L 242.360564 285.795365 
L 250.98616 285.36303 
L 266.799753 284.668666 
L 273.987749 284.081429 
L 279.738147 283.400479 
L 285.488544 282.506089 
L 291.238941 281.382792 
L 296.989339 280.013167 
L 302.739736 278.372032 
L 307.052534 276.944669 
L 311.365332 275.336751 
L 315.67813 273.545191 
L 321.428527 270.891461 
L 328.616524 267.271941 
L 337.24212 262.922925 
L 341.554918 260.982626 
L 344.430117 259.85426 
L 347.305315 258.897249 
L 350.180514 258.14213 
L 353.055713 257.615016 
L 355.930911 257.33624 
L 358.80611 257.319273 
L 361.681309 257.569974 
L 364.556507 258.086225 
L 367.431706 258.857968 
L 370.306905 259.867628 
L 373.182103 261.090895 
L 377.494901 263.25951 
L 381.807699 265.722161 
L 399.058891 275.974298 
L 403.371689 278.087462 
L 407.684487 279.868126 
L 410.559686 280.851924 
L 413.434885 281.666601 
L 416.310083 282.311295 
L 419.185282 282.788958 
L 422.060481 283.106033 
L 426.373279 283.302428 
L 430.686077 283.204453 
L 434.998875 282.869695 
L 440.749272 282.175571 
L 452.250066 280.668179 
L 456.562864 280.331192 
L 460.875662 280.250846 
L 463.750861 280.375695 
L 466.62606 280.663694 
L 469.501258 281.127809 
L 472.376457 281.776332 
L 475.251656 282.612478 
L 478.126854 283.634159 
L 481.002053 284.833974 
L 481.002053 284.833974 
" style="fill:none;stroke:#1e5d86;stroke-linecap:round;stroke-width:1.5;"/>
   </g>
   <g id="line2d_11">
    <path clip-path="url(#p6ff3884480)" d="M 203.407618 301.688405 
L 209.617169 300.213897 
L 217.06863 298.477357 
L 220.79436 297.433929 
L 224.520091 296.163249 
L 228.245821 294.594436 
L 230.729642 293.354937 
L 233.213462 291.945965 
L 235.697282 290.359024 
L 238.181103 288.589219 
L 241.906833 285.590211 
L 245.632564 282.191858 
L 249.358294 278.433046 
L 254.325935 272.98705 
L 264.261216 261.755989 
L 267.986947 257.974101 
L 270.470767 255.742873 
L 272.954587 253.805318 
L 275.438408 252.202795 
L 277.922228 250.962006 
L 280.406048 250.091623 
L 282.889869 249.579953 
L 285.373689 249.393966 
L 287.857509 249.479907 
L 291.58324 249.956672 
L 297.792791 250.914053 
L 300.276611 251.071277 
L 302.760431 250.96771 
L 305.244252 250.536568 
L 307.728072 249.733672 
L 310.211892 248.541292 
L 312.695713 246.970178 
L 315.179533 245.059588 
L 317.663353 242.875315 
L 322.630994 238.057037 
L 326.356724 234.491442 
L 328.840545 232.360836 
L 331.324365 230.559941 
L 333.808185 229.188227 
L 335.050096 228.689489 
L 336.292006 228.326804 
L 337.533916 228.106831 
L 338.775826 228.03471 
L 340.017736 228.114027 
L 341.259646 228.346823 
L 342.501557 228.733614 
L 343.743467 229.273442 
L 344.985377 229.963943 
L 346.227287 230.801435 
L 348.711107 232.896724 
L 351.194928 235.507815 
L 353.678748 238.569982 
L 356.162568 242.009742 
L 359.888299 247.706833 
L 364.85594 255.903399 
L 373.549311 270.416896 
L 377.275041 276.26225 
L 381.000772 281.708464 
L 384.726502 286.667589 
L 387.210322 289.665934 
L 389.694143 292.394484 
L 392.177963 294.834271 
L 394.661783 296.967468 
L 397.145604 298.777817 
L 399.629424 300.251361 
L 402.113244 301.377427 
L 404.597065 302.149768 
L 407.080885 302.56774 
L 409.564705 302.63745 
L 412.048526 302.37273 
L 414.532346 301.795865 
L 417.016166 300.937971 
L 419.499987 299.838953 
L 423.225717 297.8457 
L 435.644819 290.677735 
L 438.128639 289.623491 
L 440.61246 288.826023 
L 443.09628 288.324242 
L 445.5801 288.144887 
L 448.063921 288.3014 
L 450.547741 288.79354 
L 450.547741 288.79354 
" style="fill:none;stroke:#33858d;stroke-linecap:round;stroke-width:1.5;"/>
   </g>
   <g id="line2d_12">
    <path clip-path="url(#p6ff3884480)" d="M 201.854983 215.630648 
L 204.784235 207.350522 
L 207.713486 199.658338 
L 210.642738 192.667695 
L 213.571989 186.446857 
L 216.501241 181.013425 
L 219.430492 176.333092 
L 222.359744 172.322906 
L 225.288995 168.859062 
L 228.218247 165.788781 
L 234.07675 160.165594 
L 238.470627 155.812304 
L 241.399879 152.650623 
L 244.32913 149.240357 
L 248.723007 143.744382 
L 254.58151 136.317764 
L 257.510762 132.957886 
L 260.440013 130.109124 
L 261.904639 128.940727 
L 263.369265 127.974723 
L 264.833891 127.232312 
L 266.298516 126.732019 
L 267.763142 126.489279 
L 269.227768 126.516111 
L 270.692394 126.820876 
L 272.157019 127.408138 
L 273.621645 128.278616 
L 275.086271 129.429228 
L 276.550897 130.853225 
L 278.015522 132.540401 
L 279.480148 134.477367 
L 280.944774 136.647883 
L 283.874025 141.612597 
L 286.803277 147.26214 
L 289.732528 153.403373 
L 301.449534 178.870633 
L 304.378786 184.507918 
L 307.308037 189.503097 
L 308.772663 191.70965 
L 310.237289 193.696392 
L 311.701915 195.444656 
L 313.16654 196.936393 
L 314.631166 198.154272 
L 316.095792 199.081822 
L 317.560418 199.703598 
L 319.025044 200.005381 
L 320.489669 199.974396 
L 321.954295 199.59955 
L 323.418921 198.871675 
L 324.883547 197.783773 
L 326.348172 196.331249 
L 327.812798 194.512134 
L 329.277424 192.327273 
L 330.74205 189.78049 
L 332.206675 186.878708 
L 333.671301 183.632027 
L 335.135927 180.053756 
L 338.065178 171.971536 
L 340.99443 162.800559 
L 343.923681 152.753914 
L 348.317559 136.59591 
L 355.640687 109.123661 
L 358.569939 98.778665 
L 361.49919 89.193249 
L 364.428442 80.583452 
L 367.357693 73.121157 
L 368.822319 69.860633 
L 370.286945 66.928949 
L 371.751571 64.333398 
L 373.216196 62.078107 
L 374.680822 60.164133 
L 376.145448 58.589592 
L 377.610074 57.349816 
L 379.074699 56.437536 
L 380.539325 55.843074 
L 382.003951 55.554545 
L 383.468577 55.558072 
L 384.933202 55.83798 
L 386.397828 56.376996 
L 387.862454 57.156436 
L 389.32708 58.156375 
L 390.791705 59.355805 
L 392.256331 60.732783 
L 395.185583 63.927735 
L 398.114834 67.551929 
L 408.367214 80.780967 
L 411.296466 83.931446 
L 412.761092 85.296071 
L 414.225717 86.498041 
L 415.690343 87.52368 
L 417.154969 88.362109 
L 418.619595 89.005563 
L 420.08422 89.449668 
L 421.548846 89.693681 
L 423.013472 89.740681 
L 424.478098 89.597689 
L 425.942723 89.275718 
L 427.407349 88.789748 
L 428.871975 88.158611 
L 431.801226 86.55411 
L 439.124355 81.933431 
L 440.588981 81.175531 
L 442.053607 80.555249 
L 443.518232 80.10642 
L 444.982858 79.860997 
L 446.447484 79.848448 
L 447.91211 80.095206 
L 449.376735 80.624206 
L 450.841361 81.454494 
L 452.305987 82.600944 
L 453.770613 84.074078 
L 455.235238 85.879989 
L 456.699864 88.020379 
L 458.16449 90.492696 
L 459.629116 93.290372 
L 461.093741 96.403142 
L 462.558367 99.817448 
L 465.487619 107.482718 
L 468.41687 116.130005 
L 471.346122 125.582394 
L 475.739999 140.87503 
L 481.598502 162.483622 
L 493.315508 206.301754 
L 493.315508 206.301754 
" style="fill:none;stroke:#61aa90;stroke-linecap:round;stroke-width:1.5;"/>
   </g>
   <g id="patch_3">
    <path d="M 180 315 
L 180 43.2 
" style="fill:none;stroke:#cccccc;stroke-linecap:square;stroke-linejoin:miter;stroke-width:0.8;"/>
   </g>
   <g id="patch_4">
    <path d="M 508.235294 315 
L 508.235294 43.2 
" style="fill:none;stroke:#cccccc;stroke-linecap:square;stroke-linejoin:miter;stroke-width:0.8;"/>
   </g>
   <g id="patch_5">
    <path d="M 180 315 
L 508.235294 315 
" style="fill:none;stroke:#cccccc;stroke-linecap:square;stroke-linejoin:miter;stroke-width:0.8;"/>
   </g>
   <g id="patch_6">
    <path d="M 180 43.2 
L 508.235294 43.2 
" style="fill:none;stroke:#cccccc;stroke-linecap:square;stroke-linejoin:miter;stroke-width:0.8;"/>
   </g>
   <g id="legend_1">
    <g id="patch_7">
     <path d="M 187 93.753125 
L 254.564062 93.753125 
Q 256.564062 93.753125 256.564062 91.753125 
L 256.564062 50.2 
Q 256.564062 48.2 254.564062 48.2 
L 187 48.2 
Q 185 48.2 185 50.2 
L 185 91.753125 
Q 185 93.753125 187 93.753125 
z
" style="fill:#ffffff;opacity:0.8;stroke:#cccccc;stroke-linejoin:miter;"/>
    </g>
    <g id="line2d_13">
     <path d="M 189 55.857812 
L 209 55.857812 
" style="fill:none;stroke:#1e5d86;stroke-linecap:round;stroke-width:1.5;"/>
    </g>
    <g id="line2d_14"/>
    <g id="text_12">
     <!-- High -->
     <g style="fill:#262626;" transform="translate(217 59.357812)scale(0.1 -0.1)">
      <defs>
       <path d="M 513 0 
L 513 4581 
L 1119 4581 
L 1119 2700 
L 3500 2700 
L 3500 4581 
L 4106 4581 
L 4106 0 
L 3500 0 
L 3500 2159 
L 1119 2159 
L 1119 0 
L 513 0 
z
" id="ArialMT-48" transform="scale(0.015625)"/>
       <path d="M 319 -275 
L 866 -356 
Q 900 -609 1056 -725 
Q 1266 -881 1628 -881 
Q 2019 -881 2231 -725 
Q 2444 -569 2519 -288 
Q 2563 -116 2559 434 
Q 2191 0 1641 0 
Q 956 0 581 494 
Q 206 988 206 1678 
Q 206 2153 378 2554 
Q 550 2956 876 3175 
Q 1203 3394 1644 3394 
Q 2231 3394 2613 2919 
L 2613 3319 
L 3131 3319 
L 3131 450 
Q 3131 -325 2973 -648 
Q 2816 -972 2473 -1159 
Q 2131 -1347 1631 -1347 
Q 1038 -1347 672 -1080 
Q 306 -813 319 -275 
z
M 784 1719 
Q 784 1066 1043 766 
Q 1303 466 1694 466 
Q 2081 466 2343 764 
Q 2606 1063 2606 1700 
Q 2606 2309 2336 2618 
Q 2066 2928 1684 2928 
Q 1309 2928 1046 2623 
Q 784 2319 784 1719 
z
" id="ArialMT-67" transform="scale(0.015625)"/>
       <path d="M 422 0 
L 422 4581 
L 984 4581 
L 984 2938 
Q 1378 3394 1978 3394 
Q 2347 3394 2619 3248 
Q 2891 3103 3008 2847 
Q 3125 2591 3125 2103 
L 3125 0 
L 2563 0 
L 2563 2103 
Q 2563 2525 2380 2717 
Q 2197 2909 1863 2909 
Q 1613 2909 1392 2779 
Q 1172 2650 1078 2428 
Q 984 2206 984 1816 
L 984 0 
L 422 0 
z
" id="ArialMT-68" transform="scale(0.015625)"/>
      </defs>
      <use xlink:href="#ArialMT-48"/>
      <use x="72.216797" xlink:href="#ArialMT-69"/>
      <use x="94.433594" xlink:href="#ArialMT-67"/>
      <use x="150.048828" xlink:href="#ArialMT-68"/>
     </g>
    </g>
    <g id="line2d_15">
     <path d="M 189 70.120312 
L 209 70.120312 
" style="fill:none;stroke:#33858d;stroke-linecap:round;stroke-width:1.5;"/>
    </g>
    <g id="line2d_16"/>
    <g id="text_13">
     <!-- Low -->
     <g style="fill:#262626;" transform="translate(217 73.620312)scale(0.1 -0.1)">
      <defs>
       <path d="M 469 0 
L 469 4581 
L 1075 4581 
L 1075 541 
L 3331 541 
L 3331 0 
L 469 0 
z
" id="ArialMT-4c" transform="scale(0.015625)"/>
       <path d="M 213 1659 
Q 213 2581 725 3025 
Q 1153 3394 1769 3394 
Q 2453 3394 2887 2945 
Q 3322 2497 3322 1706 
Q 3322 1066 3130 698 
Q 2938 331 2570 128 
Q 2203 -75 1769 -75 
Q 1072 -75 642 372 
Q 213 819 213 1659 
z
M 791 1659 
Q 791 1022 1069 705 
Q 1347 388 1769 388 
Q 2188 388 2466 706 
Q 2744 1025 2744 1678 
Q 2744 2294 2464 2611 
Q 2184 2928 1769 2928 
Q 1347 2928 1069 2612 
Q 791 2297 791 1659 
z
" id="ArialMT-6f" transform="scale(0.015625)"/>
       <path d="M 1034 0 
L 19 3319 
L 600 3319 
L 1128 1403 
L 1325 691 
Q 1338 744 1497 1375 
L 2025 3319 
L 2603 3319 
L 3100 1394 
L 3266 759 
L 3456 1400 
L 4025 3319 
L 4572 3319 
L 3534 0 
L 2950 0 
L 2422 1988 
L 2294 2553 
L 1622 0 
L 1034 0 
z
" id="ArialMT-77" transform="scale(0.015625)"/>
      </defs>
      <use xlink:href="#ArialMT-4c"/>
      <use x="55.615234" xlink:href="#ArialMT-6f"/>
      <use x="111.230469" xlink:href="#ArialMT-77"/>
     </g>
    </g>
    <g id="line2d_17">
     <path d="M 189 84.265625 
L 209 84.265625 
" style="fill:none;stroke:#61aa90;stroke-linecap:round;stroke-width:1.5;"/>
    </g>
    <g id="line2d_18"/>
    <g id="text_14">
     <!-- Medium -->
     <g style="fill:#262626;" transform="translate(217 87.765625)scale(0.1 -0.1)">
      <defs>
       <path d="M 475 0 
L 475 4581 
L 1388 4581 
L 2472 1338 
Q 2622 884 2691 659 
Q 2769 909 2934 1394 
L 4031 4581 
L 4847 4581 
L 4847 0 
L 4263 0 
L 4263 3834 
L 2931 0 
L 2384 0 
L 1059 3900 
L 1059 0 
L 475 0 
z
" id="ArialMT-4d" transform="scale(0.015625)"/>
       <path d="M 2575 0 
L 2575 419 
Q 2259 -75 1647 -75 
Q 1250 -75 917 144 
Q 584 363 401 755 
Q 219 1147 219 1656 
Q 219 2153 384 2558 
Q 550 2963 881 3178 
Q 1213 3394 1622 3394 
Q 1922 3394 2156 3267 
Q 2391 3141 2538 2938 
L 2538 4581 
L 3097 4581 
L 3097 0 
L 2575 0 
z
M 797 1656 
Q 797 1019 1065 703 
Q 1334 388 1700 388 
Q 2069 388 2326 689 
Q 2584 991 2584 1609 
Q 2584 2291 2321 2609 
Q 2059 2928 1675 2928 
Q 1300 2928 1048 2622 
Q 797 2316 797 1656 
z
" id="ArialMT-64" transform="scale(0.015625)"/>
       <path d="M 2597 0 
L 2597 488 
Q 2209 -75 1544 -75 
Q 1250 -75 995 37 
Q 741 150 617 320 
Q 494 491 444 738 
Q 409 903 409 1263 
L 409 3319 
L 972 3319 
L 972 1478 
Q 972 1038 1006 884 
Q 1059 663 1231 536 
Q 1403 409 1656 409 
Q 1909 409 2131 539 
Q 2353 669 2445 892 
Q 2538 1116 2538 1541 
L 2538 3319 
L 3100 3319 
L 3100 0 
L 2597 0 
z
" id="ArialMT-75" transform="scale(0.015625)"/>
       <path d="M 422 0 
L 422 3319 
L 925 3319 
L 925 2853 
Q 1081 3097 1340 3245 
Q 1600 3394 1931 3394 
Q 2300 3394 2536 3241 
Q 2772 3088 2869 2813 
Q 3263 3394 3894 3394 
Q 4388 3394 4653 3120 
Q 4919 2847 4919 2278 
L 4919 0 
L 4359 0 
L 4359 2091 
Q 4359 2428 4304 2576 
Q 4250 2725 4106 2815 
Q 3963 2906 3769 2906 
Q 3419 2906 3187 2673 
Q 2956 2441 2956 1928 
L 2956 0 
L 2394 0 
L 2394 2156 
Q 2394 2531 2256 2718 
Q 2119 2906 1806 2906 
Q 1569 2906 1367 2781 
Q 1166 2656 1075 2415 
Q 984 2175 984 1722 
L 984 0 
L 422 0 
z
" id="ArialMT-6d" transform="scale(0.015625)"/>
      </defs>
      <use xlink:href="#ArialMT-4d"/>
      <use x="83.300781" xlink:href="#ArialMT-65"/>
      <use x="138.916016" xlink:href="#ArialMT-64"/>
      <use x="194.53125" xlink:href="#ArialMT-69"/>
      <use x="216.748047" xlink:href="#ArialMT-75"/>
      <use x="272.363281" xlink:href="#ArialMT-6d"/>
     </g>
    </g>
   </g>
  </g>
  <g id="axes_2">
   <g id="patch_8">
    <path d="M 573.882353 315 
L 902.117647 315 
L 902.117647 43.2 
L 573.882353 43.2 
z
" style="fill:#ffffff;"/>
   </g>
   <g id="matplotlib.axis_3">
    <g id="xtick_6">
     <g id="text_15">
      <!-- low -->
      <g style="fill:#262626;" transform="translate(621.085892 329.157812)scale(0.1 -0.1)">
       <use xlink:href="#ArialMT-6c"/>
       <use x="22.216797" xlink:href="#ArialMT-6f"/>
       <use x="77.832031" xlink:href="#ArialMT-77"/>
      </g>
     </g>
    </g>
    <g id="xtick_7">
     <g id="text_16">
      <!-- medium -->
      <g style="fill:#262626;" transform="translate(720.217969 329.157812)scale(0.1 -0.1)">
       <use xlink:href="#ArialMT-6d"/>
       <use x="83.300781" xlink:href="#ArialMT-65"/>
       <use x="138.916016" xlink:href="#ArialMT-64"/>
       <use x="194.53125" xlink:href="#ArialMT-69"/>
       <use x="216.748047" xlink:href="#ArialMT-75"/>
       <use x="272.363281" xlink:href="#ArialMT-6d"/>
      </g>
     </g>
    </g>
    <g id="xtick_8">
     <g id="text_17">
      <!-- high -->
      <g style="fill:#262626;" transform="translate(837.959421 329.157812)scale(0.1 -0.1)">
       <use xlink:href="#ArialMT-68"/>
       <use x="55.615234" xlink:href="#ArialMT-69"/>
       <use x="77.832031" xlink:href="#ArialMT-67"/>
       <use x="133.447266" xlink:href="#ArialMT-68"/>
      </g>
     </g>
    </g>
    <g id="text_18">
     <!-- product_class -->
     <g style="fill:#262626;" transform="translate(707.152344 342.420313)scale(0.1 -0.1)">
      <defs>
       <path d="M 2588 409 
Q 2275 144 1986 34 
Q 1697 -75 1366 -75 
Q 819 -75 525 192 
Q 231 459 231 875 
Q 231 1119 342 1320 
Q 453 1522 633 1644 
Q 813 1766 1038 1828 
Q 1203 1872 1538 1913 
Q 2219 1994 2541 2106 
Q 2544 2222 2544 2253 
Q 2544 2597 2384 2738 
Q 2169 2928 1744 2928 
Q 1347 2928 1158 2789 
Q 969 2650 878 2297 
L 328 2372 
Q 403 2725 575 2942 
Q 747 3159 1072 3276 
Q 1397 3394 1825 3394 
Q 2250 3394 2515 3294 
Q 2781 3194 2906 3042 
Q 3031 2891 3081 2659 
Q 3109 2516 3109 2141 
L 3109 1391 
Q 3109 606 3145 398 
Q 3181 191 3288 0 
L 2700 0 
Q 2613 175 2588 409 
z
M 2541 1666 
Q 2234 1541 1622 1453 
Q 1275 1403 1131 1340 
Q 988 1278 909 1158 
Q 831 1038 831 891 
Q 831 666 1001 516 
Q 1172 366 1500 366 
Q 1825 366 2078 508 
Q 2331 650 2450 897 
Q 2541 1088 2541 1459 
L 2541 1666 
z
" id="ArialMT-61" transform="scale(0.015625)"/>
      </defs>
      <use xlink:href="#ArialMT-70"/>
      <use x="55.615234" xlink:href="#ArialMT-72"/>
      <use x="88.916016" xlink:href="#ArialMT-6f"/>
      <use x="144.53125" xlink:href="#ArialMT-64"/>
      <use x="200.146484" xlink:href="#ArialMT-75"/>
      <use x="255.761719" xlink:href="#ArialMT-63"/>
      <use x="305.761719" xlink:href="#ArialMT-74"/>
      <use x="333.544922" xlink:href="#ArialMT-5f"/>
      <use x="389.160156" xlink:href="#ArialMT-63"/>
      <use x="439.160156" xlink:href="#ArialMT-6c"/>
      <use x="461.376953" xlink:href="#ArialMT-61"/>
      <use x="516.992188" xlink:href="#ArialMT-73"/>
      <use x="566.992188" xlink:href="#ArialMT-73"/>
     </g>
    </g>
   </g>
   <g id="matplotlib.axis_4">
    <g id="ytick_5">
     <g id="line2d_19">
      <path clip-path="url(#p720beaa774)" d="M 573.882353 304.072537 
L 902.117647 304.072537 
" style="fill:none;stroke:#cccccc;stroke-linecap:round;stroke-width:0.8;"/>
     </g>
     <g id="text_19">
      <!-- 0 -->
      <g style="fill:#262626;" transform="translate(561.321415 307.651444)scale(0.1 -0.1)">
       <use xlink:href="#ArialMT-30"/>
      </g>
     </g>
    </g>
    <g id="ytick_6">
     <g id="line2d_20">
      <path clip-path="url(#p720beaa774)" d="M 573.882353 244.66026 
L 902.117647 244.66026 
" style="fill:none;stroke:#cccccc;stroke-linecap:round;stroke-width:0.8;"/>
     </g>
     <g id="text_20">
      <!-- 500 -->
      <g style="fill:#262626;" transform="translate(550.19954 248.239166)scale(0.1 -0.1)">
       <use xlink:href="#ArialMT-35"/>
       <use x="55.615234" xlink:href="#ArialMT-30"/>
       <use x="111.230469" xlink:href="#ArialMT-30"/>
      </g>
     </g>
    </g>
    <g id="ytick_7">
     <g id="line2d_21">
      <path clip-path="url(#p720beaa774)" d="M 573.882353 185.247982 
L 902.117647 185.247982 
" style="fill:none;stroke:#cccccc;stroke-linecap:round;stroke-width:0.8;"/>
     </g>
     <g id="text_21">
      <!-- 1000 -->
      <g style="fill:#262626;" transform="translate(544.638603 188.826889)scale(0.1 -0.1)">
       <use xlink:href="#ArialMT-31"/>
       <use x="55.615234" xlink:href="#ArialMT-30"/>
       <use x="111.230469" xlink:href="#ArialMT-30"/>
       <use x="166.845703" xlink:href="#ArialMT-30"/>
      </g>
     </g>
    </g>
    <g id="ytick_8">
     <g id="line2d_22">
      <path clip-path="url(#p720beaa774)" d="M 573.882353 125.835705 
L 902.117647 125.835705 
" style="fill:none;stroke:#cccccc;stroke-linecap:round;stroke-width:0.8;"/>
     </g>
     <g id="text_22">
      <!-- 1500 -->
      <g style="fill:#262626;" transform="translate(544.638603 129.414611)scale(0.1 -0.1)">
       <use xlink:href="#ArialMT-31"/>
       <use x="55.615234" xlink:href="#ArialMT-35"/>
       <use x="111.230469" xlink:href="#ArialMT-30"/>
       <use x="166.845703" xlink:href="#ArialMT-30"/>
      </g>
     </g>
    </g>
    <g id="ytick_9">
     <g id="line2d_23">
      <path clip-path="url(#p720beaa774)" d="M 573.882353 66.423427 
L 902.117647 66.423427 
" style="fill:none;stroke:#cccccc;stroke-linecap:round;stroke-width:0.8;"/>
     </g>
     <g id="text_23">
      <!-- 2000 -->
      <g style="fill:#262626;" transform="translate(544.638603 70.002334)scale(0.1 -0.1)">
       <use xlink:href="#ArialMT-32"/>
       <use x="55.615234" xlink:href="#ArialMT-30"/>
       <use x="111.230469" xlink:href="#ArialMT-30"/>
       <use x="166.845703" xlink:href="#ArialMT-30"/>
      </g>
     </g>
    </g>
    <g id="text_24">
     <!-- list_price -->
     <g style="fill:#262626;" transform="translate(538.651103 198.828125)rotate(-90)scale(0.1 -0.1)">
      <use xlink:href="#ArialMT-6c"/>
      <use x="22.216797" xlink:href="#ArialMT-69"/>
      <use x="44.433594" xlink:href="#ArialMT-73"/>
      <use x="94.433594" xlink:href="#ArialMT-74"/>
      <use x="122.216797" xlink:href="#ArialMT-5f"/>
      <use x="177.832031" xlink:href="#ArialMT-70"/>
      <use x="233.447266" xlink:href="#ArialMT-72"/>
      <use x="266.748047" xlink:href="#ArialMT-69"/>
      <use x="288.964844" xlink:href="#ArialMT-63"/>
      <use x="338.964844" xlink:href="#ArialMT-65"/>
     </g>
    </g>
   </g>
   <g id="patch_9">
    <path clip-path="url(#p720beaa774)" d="M 584.823529 233.935156 
L 672.352941 233.935156 
L 672.352941 176.565472 
L 584.823529 176.565472 
L 584.823529 233.935156 
z
" style="fill:#3274a1;stroke:#3d3d3d;stroke-linejoin:miter;stroke-width:1.5;"/>
   </g>
   <g id="patch_10">
    <path clip-path="url(#p720beaa774)" d="M 694.235294 236.394824 
L 781.764706 236.394824 
L 781.764706 109.568623 
L 694.235294 109.568623 
L 694.235294 236.394824 
z
" style="fill:#e1812c;stroke:#3d3d3d;stroke-linejoin:miter;stroke-width:1.5;"/>
   </g>
   <g id="patch_11">
    <path clip-path="url(#p720beaa774)" d="M 803.647059 215.17157 
L 891.176471 215.17157 
L 891.176471 130.806136 
L 803.647059 130.806136 
L 803.647059 215.17157 
z
" style="fill:#3a923a;stroke:#3d3d3d;stroke-linejoin:miter;stroke-width:1.5;"/>
   </g>
   <g id="line2d_24">
    <path clip-path="url(#p720beaa774)" d="M 628.588235 233.935156 
L 628.588235 295.616982 
" style="fill:none;stroke:#3d3d3d;stroke-linecap:round;stroke-width:1.5;"/>
   </g>
   <g id="line2d_25">
    <path clip-path="url(#p720beaa774)" d="M 628.588235 176.565472 
L 628.588235 90.969016 
" style="fill:none;stroke:#3d3d3d;stroke-linecap:round;stroke-width:1.5;"/>
   </g>
   <g id="line2d_26">
    <path clip-path="url(#p720beaa774)" d="M 606.705882 295.616982 
L 650.470588 295.616982 
" style="fill:none;stroke:#3d3d3d;stroke-linecap:round;stroke-width:1.5;"/>
   </g>
   <g id="line2d_27">
    <path clip-path="url(#p720beaa774)" d="M 606.705882 90.969016 
L 650.470588 90.969016 
" style="fill:none;stroke:#3d3d3d;stroke-linecap:round;stroke-width:1.5;"/>
   </g>
   <g id="line2d_28"/>
   <g id="line2d_29">
    <path clip-path="url(#p720beaa774)" d="M 738 236.394824 
L 738 296.902664 
" style="fill:none;stroke:#3d3d3d;stroke-linecap:round;stroke-width:1.5;"/>
   </g>
   <g id="line2d_30">
    <path clip-path="url(#p720beaa774)" d="M 738 109.568623 
L 738 55.554545 
" style="fill:none;stroke:#3d3d3d;stroke-linecap:round;stroke-width:1.5;"/>
   </g>
   <g id="line2d_31">
    <path clip-path="url(#p720beaa774)" d="M 716.117647 296.902664 
L 759.882353 296.902664 
" style="fill:none;stroke:#3d3d3d;stroke-linecap:round;stroke-width:1.5;"/>
   </g>
   <g id="line2d_32">
    <path clip-path="url(#p720beaa774)" d="M 716.117647 55.554545 
L 759.882353 55.554545 
" style="fill:none;stroke:#3d3d3d;stroke-linecap:round;stroke-width:1.5;"/>
   </g>
   <g id="line2d_33"/>
   <g id="line2d_34">
    <path clip-path="url(#p720beaa774)" d="M 847.411765 215.17157 
L 847.411765 302.645455 
" style="fill:none;stroke:#3d3d3d;stroke-linecap:round;stroke-width:1.5;"/>
   </g>
   <g id="line2d_35">
    <path clip-path="url(#p720beaa774)" d="M 847.411765 130.806136 
L 847.411765 65.750881 
" style="fill:none;stroke:#3d3d3d;stroke-linecap:round;stroke-width:1.5;"/>
   </g>
   <g id="line2d_36">
    <path clip-path="url(#p720beaa774)" d="M 825.529412 302.645455 
L 869.294118 302.645455 
" style="fill:none;stroke:#3d3d3d;stroke-linecap:round;stroke-width:1.5;"/>
   </g>
   <g id="line2d_37">
    <path clip-path="url(#p720beaa774)" d="M 825.529412 65.750881 
L 869.294118 65.750881 
" style="fill:none;stroke:#3d3d3d;stroke-linecap:round;stroke-width:1.5;"/>
   </g>
   <g id="line2d_38"/>
   <g id="line2d_39">
    <path clip-path="url(#p720beaa774)" d="M 584.823529 190.150684 
L 672.352941 190.150684 
" style="fill:none;stroke:#3d3d3d;stroke-linecap:round;stroke-width:1.5;"/>
   </g>
   <g id="line2d_40">
    <path clip-path="url(#p720beaa774)" d="M 694.235294 157.781687 
L 781.764706 157.781687 
" style="fill:none;stroke:#3d3d3d;stroke-linecap:round;stroke-width:1.5;"/>
   </g>
   <g id="line2d_41">
    <path clip-path="url(#p720beaa774)" d="M 803.647059 169.904168 
L 891.176471 169.904168 
" style="fill:none;stroke:#3d3d3d;stroke-linecap:round;stroke-width:1.5;"/>
   </g>
   <g id="patch_12">
    <path d="M 573.882353 315 
L 573.882353 43.2 
" style="fill:none;stroke:#cccccc;stroke-linecap:square;stroke-linejoin:miter;stroke-width:0.8;"/>
   </g>
   <g id="patch_13">
    <path d="M 902.117647 315 
L 902.117647 43.2 
" style="fill:none;stroke:#cccccc;stroke-linecap:square;stroke-linejoin:miter;stroke-width:0.8;"/>
   </g>
   <g id="patch_14">
    <path d="M 573.882353 315 
L 902.117647 315 
" style="fill:none;stroke:#cccccc;stroke-linecap:square;stroke-linejoin:miter;stroke-width:0.8;"/>
   </g>
   <g id="patch_15">
    <path d="M 573.882353 43.2 
L 902.117647 43.2 
" style="fill:none;stroke:#cccccc;stroke-linecap:square;stroke-linejoin:miter;stroke-width:0.8;"/>
   </g>
  </g>
  <g id="axes_3">
   <g id="patch_16">
    <path d="M 967.764706 315 
L 1296 315 
L 1296 43.2 
L 967.764706 43.2 
z
" style="fill:#ffffff;"/>
   </g>
   <g id="matplotlib.axis_5">
    <g id="xtick_9">
     <g id="text_25">
      <!-- low -->
      <g style="fill:#262626;" transform="translate(1014.968244 329.157812)scale(0.1 -0.1)">
       <use xlink:href="#ArialMT-6c"/>
       <use x="22.216797" xlink:href="#ArialMT-6f"/>
       <use x="77.832031" xlink:href="#ArialMT-77"/>
      </g>
     </g>
    </g>
    <g id="xtick_10">
     <g id="text_26">
      <!-- medium -->
      <g style="fill:#262626;" transform="translate(1114.100322 329.157812)scale(0.1 -0.1)">
       <use xlink:href="#ArialMT-6d"/>
       <use x="83.300781" xlink:href="#ArialMT-65"/>
       <use x="138.916016" xlink:href="#ArialMT-64"/>
       <use x="194.53125" xlink:href="#ArialMT-69"/>
       <use x="216.748047" xlink:href="#ArialMT-75"/>
       <use x="272.363281" xlink:href="#ArialMT-6d"/>
      </g>
     </g>
    </g>
    <g id="xtick_11">
     <g id="text_27">
      <!-- high -->
      <g style="fill:#262626;" transform="translate(1231.841774 329.157812)scale(0.1 -0.1)">
       <use xlink:href="#ArialMT-68"/>
       <use x="55.615234" xlink:href="#ArialMT-69"/>
       <use x="77.832031" xlink:href="#ArialMT-67"/>
       <use x="133.447266" xlink:href="#ArialMT-68"/>
      </g>
     </g>
    </g>
    <g id="text_28">
     <!-- product_class -->
     <g style="fill:#262626;" transform="translate(1101.034697 342.420313)scale(0.1 -0.1)">
      <use xlink:href="#ArialMT-70"/>
      <use x="55.615234" xlink:href="#ArialMT-72"/>
      <use x="88.916016" xlink:href="#ArialMT-6f"/>
      <use x="144.53125" xlink:href="#ArialMT-64"/>
      <use x="200.146484" xlink:href="#ArialMT-75"/>
      <use x="255.761719" xlink:href="#ArialMT-63"/>
      <use x="305.761719" xlink:href="#ArialMT-74"/>
      <use x="333.544922" xlink:href="#ArialMT-5f"/>
      <use x="389.160156" xlink:href="#ArialMT-63"/>
      <use x="439.160156" xlink:href="#ArialMT-6c"/>
      <use x="461.376953" xlink:href="#ArialMT-61"/>
      <use x="516.992188" xlink:href="#ArialMT-73"/>
      <use x="566.992188" xlink:href="#ArialMT-73"/>
     </g>
    </g>
   </g>
   <g id="matplotlib.axis_6">
    <g id="ytick_10">
     <g id="line2d_42">
      <path clip-path="url(#p903eeb86e7)" d="M 967.764706 304.744922 
L 1296 304.744922 
" style="fill:none;stroke:#cccccc;stroke-linecap:round;stroke-width:0.8;"/>
     </g>
     <g id="text_29">
      <!-- 900 -->
      <g style="fill:#262626;" transform="translate(944.081893 308.323828)scale(0.1 -0.1)">
       <defs>
        <path d="M 350 1059 
L 891 1109 
Q 959 728 1153 556 
Q 1347 384 1650 384 
Q 1909 384 2104 503 
Q 2300 622 2425 820 
Q 2550 1019 2634 1356 
Q 2719 1694 2719 2044 
Q 2719 2081 2716 2156 
Q 2547 1888 2255 1720 
Q 1963 1553 1622 1553 
Q 1053 1553 659 1965 
Q 266 2378 266 3053 
Q 266 3750 677 4175 
Q 1088 4600 1706 4600 
Q 2153 4600 2523 4359 
Q 2894 4119 3086 3673 
Q 3278 3228 3278 2384 
Q 3278 1506 3087 986 
Q 2897 466 2520 194 
Q 2144 -78 1638 -78 
Q 1100 -78 759 220 
Q 419 519 350 1059 
z
M 2653 3081 
Q 2653 3566 2395 3850 
Q 2138 4134 1775 4134 
Q 1400 4134 1122 3828 
Q 844 3522 844 3034 
Q 844 2597 1108 2323 
Q 1372 2050 1759 2050 
Q 2150 2050 2401 2323 
Q 2653 2597 2653 3081 
z
" id="ArialMT-39" transform="scale(0.015625)"/>
       </defs>
       <use xlink:href="#ArialMT-39"/>
       <use x="55.615234" xlink:href="#ArialMT-30"/>
       <use x="111.230469" xlink:href="#ArialMT-30"/>
      </g>
     </g>
    </g>
    <g id="ytick_11">
     <g id="line2d_43">
      <path clip-path="url(#p903eeb86e7)" d="M 967.764706 257.849182 
L 1296 257.849182 
" style="fill:none;stroke:#cccccc;stroke-linecap:round;stroke-width:0.8;"/>
     </g>
     <g id="text_30">
      <!-- 950 -->
      <g style="fill:#262626;" transform="translate(944.081893 261.428089)scale(0.1 -0.1)">
       <use xlink:href="#ArialMT-39"/>
       <use x="55.615234" xlink:href="#ArialMT-35"/>
       <use x="111.230469" xlink:href="#ArialMT-30"/>
      </g>
     </g>
    </g>
    <g id="ytick_12">
     <g id="line2d_44">
      <path clip-path="url(#p903eeb86e7)" d="M 967.764706 210.953443 
L 1296 210.953443 
" style="fill:none;stroke:#cccccc;stroke-linecap:round;stroke-width:0.8;"/>
     </g>
     <g id="text_31">
      <!-- 1000 -->
      <g style="fill:#262626;" transform="translate(938.520956 214.53235)scale(0.1 -0.1)">
       <use xlink:href="#ArialMT-31"/>
       <use x="55.615234" xlink:href="#ArialMT-30"/>
       <use x="111.230469" xlink:href="#ArialMT-30"/>
       <use x="166.845703" xlink:href="#ArialMT-30"/>
      </g>
     </g>
    </g>
    <g id="ytick_13">
     <g id="line2d_45">
      <path clip-path="url(#p903eeb86e7)" d="M 967.764706 164.057704 
L 1296 164.057704 
" style="fill:none;stroke:#cccccc;stroke-linecap:round;stroke-width:0.8;"/>
     </g>
     <g id="text_32">
      <!-- 1050 -->
      <g style="fill:#262626;" transform="translate(938.520956 167.636611)scale(0.1 -0.1)">
       <use xlink:href="#ArialMT-31"/>
       <use x="55.615234" xlink:href="#ArialMT-30"/>
       <use x="111.230469" xlink:href="#ArialMT-35"/>
       <use x="166.845703" xlink:href="#ArialMT-30"/>
      </g>
     </g>
    </g>
    <g id="ytick_14">
     <g id="line2d_46">
      <path clip-path="url(#p903eeb86e7)" d="M 967.764706 117.161965 
L 1296 117.161965 
" style="fill:none;stroke:#cccccc;stroke-linecap:round;stroke-width:0.8;"/>
     </g>
     <g id="text_33">
      <!-- 1100 -->
      <g style="fill:#262626;" transform="translate(939.258456 120.740871)scale(0.1 -0.1)">
       <use xlink:href="#ArialMT-31"/>
       <use x="48.240234" xlink:href="#ArialMT-31"/>
       <use x="103.855469" xlink:href="#ArialMT-30"/>
       <use x="159.470703" xlink:href="#ArialMT-30"/>
      </g>
     </g>
    </g>
    <g id="ytick_15">
     <g id="line2d_47">
      <path clip-path="url(#p903eeb86e7)" d="M 967.764706 70.266226 
L 1296 70.266226 
" style="fill:none;stroke:#cccccc;stroke-linecap:round;stroke-width:0.8;"/>
     </g>
     <g id="text_34">
      <!-- 1150 -->
      <g style="fill:#262626;" transform="translate(939.258456 73.845132)scale(0.1 -0.1)">
       <use xlink:href="#ArialMT-31"/>
       <use x="48.240234" xlink:href="#ArialMT-31"/>
       <use x="103.855469" xlink:href="#ArialMT-35"/>
       <use x="159.470703" xlink:href="#ArialMT-30"/>
      </g>
     </g>
    </g>
    <g id="text_35">
     <!-- list_price -->
     <g style="fill:#262626;" transform="translate(932.533456 198.828125)rotate(-90)scale(0.1 -0.1)">
      <use xlink:href="#ArialMT-6c"/>
      <use x="22.216797" xlink:href="#ArialMT-69"/>
      <use x="44.433594" xlink:href="#ArialMT-73"/>
      <use x="94.433594" xlink:href="#ArialMT-74"/>
      <use x="122.216797" xlink:href="#ArialMT-5f"/>
      <use x="177.832031" xlink:href="#ArialMT-70"/>
      <use x="233.447266" xlink:href="#ArialMT-72"/>
      <use x="266.748047" xlink:href="#ArialMT-69"/>
      <use x="288.964844" xlink:href="#ArialMT-63"/>
      <use x="338.964844" xlink:href="#ArialMT-65"/>
     </g>
    </g>
   </g>
   <g id="PathCollection_1">
    <defs>
     <path d="M 0 3.383948 
C 0.897434 3.383948 1.758231 3.027394 2.392813 2.392813 
C 3.027394 1.758231 3.383948 0.897434 3.383948 -0 
C 3.383948 -0.897434 3.027394 -1.758231 2.392813 -2.392813 
C 1.758231 -3.027394 0.897434 -3.383948 0 -3.383948 
C -0.897434 -3.383948 -1.758231 -3.027394 -2.392813 -2.392813 
C -3.027394 -1.758231 -3.383948 -0.897434 -3.383948 0 
C -3.383948 0.897434 -3.027394 1.758231 -2.392813 2.392813 
C -1.758231 3.027394 -0.897434 3.383948 0 3.383948 
z
" id="C0_0_5bbad53a27"/>
    </defs>
    <g clip-path="url(#p903eeb86e7)">
     <use style="fill:#1f77b4;stroke:#1f77b4;stroke-width:2.025;" x="1022.470588" xlink:href="#C0_0_5bbad53a27" y="279.557452"/>
    </g>
    <g clip-path="url(#p903eeb86e7)">
     <use style="fill:#1f77b4;stroke:#1f77b4;stroke-width:2.025;" x="1131.882353" xlink:href="#C0_0_5bbad53a27" y="70.497563"/>
    </g>
    <g clip-path="url(#p903eeb86e7)">
     <use style="fill:#1f77b4;stroke:#1f77b4;stroke-width:2.025;" x="1241.294118" xlink:href="#C0_0_5bbad53a27" y="126.746663"/>
    </g>
   </g>
   <g id="line2d_48">
    <path clip-path="url(#p903eeb86e7)" d="M 1022.470588 302.645455 
L 1022.470588 257.810922 
" style="fill:none;stroke:#1f77b4;stroke-linecap:round;stroke-width:2.7;"/>
   </g>
   <g id="line2d_49">
    <path clip-path="url(#p903eeb86e7)" d="M 1019.735294 302.645455 
L 1025.205882 302.645455 
" style="fill:none;stroke:#1f77b4;stroke-linecap:round;stroke-width:2.7;"/>
   </g>
   <g id="line2d_50">
    <path clip-path="url(#p903eeb86e7)" d="M 1019.735294 257.810922 
L 1025.205882 257.810922 
" style="fill:none;stroke:#1f77b4;stroke-linecap:round;stroke-width:2.7;"/>
   </g>
   <g id="line2d_51">
    <path clip-path="url(#p903eeb86e7)" d="M 1131.882353 85.990122 
L 1131.882353 55.554545 
" style="fill:none;stroke:#1f77b4;stroke-linecap:round;stroke-width:2.7;"/>
   </g>
   <g id="line2d_52">
    <path clip-path="url(#p903eeb86e7)" d="M 1129.147059 85.990122 
L 1134.617647 85.990122 
" style="fill:none;stroke:#1f77b4;stroke-linecap:round;stroke-width:2.7;"/>
   </g>
   <g id="line2d_53">
    <path clip-path="url(#p903eeb86e7)" d="M 1129.147059 55.554545 
L 1134.617647 55.554545 
" style="fill:none;stroke:#1f77b4;stroke-linecap:round;stroke-width:2.7;"/>
   </g>
   <g id="line2d_54">
    <path clip-path="url(#p903eeb86e7)" d="M 1241.294118 159.287053 
L 1241.294118 94.4961 
" style="fill:none;stroke:#1f77b4;stroke-linecap:round;stroke-width:2.7;"/>
   </g>
   <g id="line2d_55">
    <path clip-path="url(#p903eeb86e7)" d="M 1238.558824 159.287053 
L 1244.029412 159.287053 
" style="fill:none;stroke:#1f77b4;stroke-linecap:round;stroke-width:2.7;"/>
   </g>
   <g id="line2d_56">
    <path clip-path="url(#p903eeb86e7)" d="M 1238.558824 94.4961 
L 1244.029412 94.4961 
" style="fill:none;stroke:#1f77b4;stroke-linecap:round;stroke-width:2.7;"/>
   </g>
   <g id="line2d_57">
    <path clip-path="url(#p903eeb86e7)" d="M 967.764706 110.280303 
L 1296 110.280303 
" style="fill:none;stroke:#008000;stroke-dasharray:3.7,1.6;stroke-dashoffset:0;"/>
   </g>
   <g id="patch_17">
    <path d="M 967.764706 315 
L 967.764706 43.2 
" style="fill:none;stroke:#cccccc;stroke-linecap:square;stroke-linejoin:miter;stroke-width:0.8;"/>
   </g>
   <g id="patch_18">
    <path d="M 1296 315 
L 1296 43.2 
" style="fill:none;stroke:#cccccc;stroke-linecap:square;stroke-linejoin:miter;stroke-width:0.8;"/>
   </g>
   <g id="patch_19">
    <path d="M 967.764706 315 
L 1296 315 
" style="fill:none;stroke:#cccccc;stroke-linecap:square;stroke-linejoin:miter;stroke-width:0.8;"/>
   </g>
   <g id="patch_20">
    <path d="M 967.764706 43.2 
L 1296 43.2 
" style="fill:none;stroke:#cccccc;stroke-linecap:square;stroke-linejoin:miter;stroke-width:0.8;"/>
   </g>
  </g>
 </g>
 <defs>
  <clipPath id="p6ff3884480">
   <rect height="271.8" width="328.235294" x="180" y="43.2"/>
  </clipPath>
  <clipPath id="p720beaa774">
   <rect height="271.8" width="328.235294" x="573.882353" y="43.2"/>
  </clipPath>
  <clipPath id="p903eeb86e7">
   <rect height="271.8" width="328.235294" x="967.764706" y="43.2"/>
  </clipPath>
 </defs>
</svg>
